<?xml version="1.0" encoding="utf-8"?>
<!-- Generator: Adobe Illustrator 23.0.1, SVG Export Plug-In . SVG Version: 6.00 Build 0)  -->
<svg version="1.1" xmlns="http://www.w3.org/2000/svg" xmlns:xlink="http://www.w3.org/1999/xlink" x="0px" y="0px"
	 viewBox="0 0 258 93.8" style="enable-background:new 0 0 258 93.8;" xml:space="preserve">
<style type="text/css">
	.st0{display:none;}
	.st1{display:inline;fill:none;stroke:#D8D8D8;stroke-width:0.5;stroke-miterlimit:10;}
	.st2{fill:none;}
	.st3{fill:#FF4057;}
	.st4{fill:#FF9161;}
	.st5{fill:#900048;}
	.st6{fill:#300761;}
	.st7{opacity:0.5;fill:#FFFFFF;}
	.st8{fill:#FFFFFF;}
	.st9{opacity:0.5;}
</style>
<g id="Calque_2" class="st0">
	<rect x="70.4" y="23.5" class="st1" width="11.7" height="11.7"/>
	<rect x="58.6" y="23.5" class="st1" width="11.7" height="11.7"/>
	<rect x="46.9" y="23.5" class="st1" width="11.7" height="11.7"/>
	<rect x="35.2" y="23.5" class="st1" width="11.7" height="11.7"/>
	<rect x="23.5" y="23.5" class="st1" width="11.7" height="11.7"/>
	<rect x="82.1" y="23.5" class="st1" width="11.7" height="11.7"/>
	<rect x="93.8" y="23.5" class="st1" width="11.7" height="11.7"/>
	<rect x="105.6" y="23.5" class="st1" width="11.7" height="11.7"/>
	<rect x="117.3" y="23.5" class="st1" width="11.7" height="11.7"/>
	<rect x="129" y="23.5" class="st1" width="11.7" height="11.7"/>
	<rect x="140.7" y="23.5" class="st1" width="11.7" height="11.7"/>
	<rect x="152.5" y="23.5" class="st1" width="11.7" height="11.7"/>
	<rect x="164.2" y="23.5" class="st1" width="11.7" height="11.7"/>
	<rect x="175.9" y="23.5" class="st1" width="11.7" height="11.7"/>
	<rect x="187.7" y="23.5" class="st1" width="11.7" height="11.7"/>
	<rect x="199.4" y="23.5" class="st1" width="11.7" height="11.7"/>
	<rect x="211.1" y="23.5" class="st1" width="11.7" height="11.7"/>
	<rect x="222.8" y="23.5" class="st1" width="11.7" height="11.7"/>
	<rect x="70.4" y="11.7" class="st1" width="11.7" height="11.7"/>
	<rect x="58.6" y="11.7" class="st1" width="11.7" height="11.7"/>
	<rect x="46.9" y="11.7" class="st1" width="11.7" height="11.7"/>
	<rect x="35.2" y="11.7" class="st1" width="11.7" height="11.7"/>
	<rect x="23.5" y="11.7" class="st1" width="11.7" height="11.7"/>
	<rect x="82.1" y="11.7" class="st1" width="11.7" height="11.7"/>
	<rect x="93.8" y="11.7" class="st1" width="11.7" height="11.7"/>
	<rect x="105.6" y="11.7" class="st1" width="11.7" height="11.7"/>
	<rect x="117.3" y="11.7" class="st1" width="11.7" height="11.7"/>
	<rect x="129" y="11.7" class="st1" width="11.7" height="11.7"/>
	<rect x="140.7" y="11.7" class="st1" width="11.7" height="11.7"/>
	<rect x="152.5" y="11.7" class="st1" width="11.7" height="11.7"/>
	<rect x="164.2" y="11.7" class="st1" width="11.7" height="11.7"/>
	<rect x="175.9" y="11.7" class="st1" width="11.7" height="11.7"/>
	<rect x="187.7" y="11.7" class="st1" width="11.7" height="11.7"/>
	<rect x="199.4" y="11.7" class="st1" width="11.7" height="11.7"/>
	<rect x="211.1" y="11.7" class="st1" width="11.7" height="11.7"/>
	<rect x="222.8" y="11.7" class="st1" width="11.7" height="11.7"/>
	<rect x="70.4" y="70.4" class="st1" width="11.7" height="11.7"/>
	<rect x="58.6" y="70.4" class="st1" width="11.7" height="11.7"/>
	<rect x="46.9" y="70.4" class="st1" width="11.7" height="11.7"/>
	<rect x="35.2" y="70.4" class="st1" width="11.7" height="11.7"/>
	<rect x="23.5" y="70.4" class="st1" width="11.7" height="11.7"/>
	<rect x="82.1" y="70.4" class="st1" width="11.7" height="11.7"/>
	<rect x="93.8" y="70.4" class="st1" width="11.7" height="11.7"/>
	<rect x="105.6" y="70.4" class="st1" width="11.7" height="11.7"/>
	<rect x="117.3" y="70.4" class="st1" width="11.7" height="11.7"/>
	<rect x="129" y="70.4" class="st1" width="11.7" height="11.7"/>
	<rect x="140.7" y="70.4" class="st1" width="11.7" height="11.7"/>
	<rect x="152.5" y="70.4" class="st1" width="11.7" height="11.7"/>
	<rect x="164.2" y="70.4" class="st1" width="11.7" height="11.7"/>
	<rect x="175.9" y="70.4" class="st1" width="11.7" height="11.7"/>
	<rect x="187.7" y="70.4" class="st1" width="11.7" height="11.7"/>
	<rect x="199.4" y="70.4" class="st1" width="11.7" height="11.7"/>
	<rect x="211.1" y="70.4" class="st1" width="11.7" height="11.7"/>
	<rect x="222.8" y="70.4" class="st1" width="11.7" height="11.7"/>
	<rect x="70.4" y="35.2" class="st1" width="11.7" height="11.7"/>
	<rect x="58.6" y="35.2" class="st1" width="11.7" height="11.7"/>
	<rect x="46.9" y="35.2" class="st1" width="11.7" height="11.7"/>
	<rect x="35.2" y="35.2" class="st1" width="11.7" height="11.7"/>
	<rect x="23.5" y="35.2" class="st1" width="11.7" height="11.7"/>
	<rect x="82.1" y="35.2" class="st1" width="11.7" height="11.7"/>
	<rect x="93.8" y="35.2" class="st1" width="11.7" height="11.7"/>
	<rect x="105.6" y="35.2" class="st1" width="11.7" height="11.7"/>
	<rect x="117.3" y="35.2" class="st1" width="11.7" height="11.7"/>
	<rect x="129" y="35.2" class="st1" width="11.7" height="11.7"/>
	<rect x="140.7" y="35.2" class="st1" width="11.7" height="11.7"/>
	<rect x="152.5" y="35.2" class="st1" width="11.7" height="11.7"/>
	<rect x="164.2" y="35.2" class="st1" width="11.7" height="11.7"/>
	<rect x="175.9" y="35.2" class="st1" width="11.7" height="11.7"/>
	<rect x="187.7" y="35.2" class="st1" width="11.7" height="11.7"/>
	<rect x="199.4" y="35.2" class="st1" width="11.7" height="11.7"/>
	<rect x="211.1" y="35.2" class="st1" width="11.7" height="11.7"/>
	<rect x="222.8" y="35.2" class="st1" width="11.7" height="11.7"/>
	<rect x="70.4" y="46.9" class="st1" width="11.7" height="11.7"/>
	<rect x="58.6" y="46.9" class="st1" width="11.7" height="11.7"/>
	<rect x="46.9" y="46.9" class="st1" width="11.7" height="11.7"/>
	<rect x="35.2" y="46.9" class="st1" width="11.7" height="11.7"/>
	<rect x="23.5" y="46.9" class="st1" width="11.7" height="11.7"/>
	<rect x="82.1" y="46.9" class="st1" width="11.7" height="11.7"/>
	<rect x="93.8" y="46.9" class="st1" width="11.7" height="11.7"/>
	<rect x="105.6" y="46.9" class="st1" width="11.7" height="11.7"/>
	<rect x="117.3" y="46.9" class="st1" width="11.7" height="11.7"/>
	<rect x="129" y="46.9" class="st1" width="11.7" height="11.7"/>
	<rect x="140.7" y="46.9" class="st1" width="11.7" height="11.7"/>
	<rect x="152.5" y="46.9" class="st1" width="11.7" height="11.7"/>
	<rect x="164.2" y="46.9" class="st1" width="11.7" height="11.7"/>
	<rect x="175.9" y="46.9" class="st1" width="11.7" height="11.7"/>
	<rect x="187.7" y="46.9" class="st1" width="11.7" height="11.7"/>
	<rect x="199.4" y="46.9" class="st1" width="11.7" height="11.7"/>
	<rect x="211.1" y="46.9" class="st1" width="11.7" height="11.7"/>
	<rect x="222.8" y="46.9" class="st1" width="11.7" height="11.7"/>
	<rect x="70.4" y="58.6" class="st1" width="11.7" height="11.7"/>
	<rect x="58.6" y="58.6" class="st1" width="11.7" height="11.7"/>
	<rect x="46.9" y="58.6" class="st1" width="11.7" height="11.7"/>
	<rect x="35.2" y="58.6" class="st1" width="11.7" height="11.7"/>
	<rect x="23.5" y="58.6" class="st1" width="11.7" height="11.7"/>
	<rect x="82.1" y="58.6" class="st1" width="11.7" height="11.7"/>
	<rect x="93.8" y="58.6" class="st1" width="11.7" height="11.7"/>
	<rect x="105.6" y="58.6" class="st1" width="11.7" height="11.7"/>
	<rect x="117.3" y="58.6" class="st1" width="11.7" height="11.7"/>
	<rect x="129" y="58.6" class="st1" width="11.7" height="11.7"/>
	<rect x="140.7" y="58.6" class="st1" width="11.7" height="11.7"/>
	<rect x="152.5" y="58.6" class="st1" width="11.7" height="11.7"/>
	<rect x="164.2" y="58.6" class="st1" width="11.7" height="11.7"/>
	<rect x="175.9" y="58.6" class="st1" width="11.7" height="11.7"/>
	<rect x="187.7" y="58.6" class="st1" width="11.7" height="11.7"/>
	<rect x="199.4" y="58.6" class="st1" width="11.7" height="11.7"/>
	<rect x="211.1" y="58.6" class="st1" width="11.7" height="11.7"/>
	<rect x="222.8" y="58.6" class="st1" width="11.7" height="11.7"/>
	<rect x="234.6" y="23.5" class="st1" width="11.7" height="11.7"/>
	<rect x="234.6" y="11.7" class="st1" width="11.7" height="11.7"/>
	<rect x="234.6" y="70.4" class="st1" width="11.7" height="11.7"/>
	<rect x="234.6" y="35.2" class="st1" width="11.7" height="11.7"/>
	<rect x="234.6" y="46.9" class="st1" width="11.7" height="11.7"/>
	<rect x="234.6" y="58.6" class="st1" width="11.7" height="11.7"/>
	<rect x="246.3" y="23.5" class="st1" width="11.7" height="11.7"/>
	<rect x="246.3" y="11.7" class="st1" width="11.7" height="11.7"/>
	<rect x="246.3" y="70.4" class="st1" width="11.7" height="11.7"/>
	<rect x="246.3" y="35.2" class="st1" width="11.7" height="11.7"/>
	<rect x="246.3" y="46.9" class="st1" width="11.7" height="11.7"/>
	<rect x="246.3" y="58.6" class="st1" width="11.7" height="11.7"/>
	<rect x="11.7" y="23.5" class="st1" width="11.7" height="11.7"/>
	<rect x="11.7" y="11.7" class="st1" width="11.7" height="11.7"/>
	<rect x="11.7" y="70.4" class="st1" width="11.7" height="11.7"/>
	<rect x="11.7" y="35.2" class="st1" width="11.7" height="11.7"/>
	<rect x="11.7" y="46.9" class="st1" width="11.7" height="11.7"/>
	<rect x="11.7" y="58.6" class="st1" width="11.7" height="11.7"/>
	<rect y="23.5" class="st1" width="11.7" height="11.7"/>
	<rect y="11.7" class="st1" width="11.7" height="11.7"/>
	<rect x="70.4" class="st1" width="11.7" height="11.7"/>
	<rect x="58.6" class="st1" width="11.7" height="11.7"/>
	<rect x="46.9" class="st1" width="11.7" height="11.7"/>
	<rect x="35.2" class="st1" width="11.7" height="11.7"/>
	<rect x="23.5" class="st1" width="11.7" height="11.7"/>
	<rect x="82.1" class="st1" width="11.7" height="11.7"/>
	<rect x="93.8" class="st1" width="11.7" height="11.7"/>
	<rect x="105.6" class="st1" width="11.7" height="11.7"/>
	<rect x="117.3" class="st1" width="11.7" height="11.7"/>
	<rect x="129" class="st1" width="11.7" height="11.7"/>
	<rect x="140.7" class="st1" width="11.7" height="11.7"/>
	<rect x="152.5" class="st1" width="11.7" height="11.7"/>
	<rect x="164.2" class="st1" width="11.7" height="11.7"/>
	<rect x="175.9" class="st1" width="11.7" height="11.7"/>
	<rect x="187.7" class="st1" width="11.7" height="11.7"/>
	<rect x="199.4" class="st1" width="11.7" height="11.7"/>
	<rect x="211.1" class="st1" width="11.7" height="11.7"/>
	<rect x="222.8" class="st1" width="11.7" height="11.7"/>
	<rect x="234.6" class="st1" width="11.7" height="11.7"/>
	<rect x="246.3" class="st1" width="11.7" height="11.7"/>
	<rect x="11.7" class="st1" width="11.7" height="11.7"/>
	<rect class="st1" width="11.7" height="11.7"/>
	<rect x="70.4" y="82.1" class="st1" width="11.7" height="11.7"/>
	<rect x="58.6" y="82.1" class="st1" width="11.7" height="11.7"/>
	<rect x="46.9" y="82.1" class="st1" width="11.7" height="11.7"/>
	<rect x="35.2" y="82.1" class="st1" width="11.7" height="11.7"/>
	<rect x="23.5" y="82.1" class="st1" width="11.7" height="11.7"/>
	<rect x="82.1" y="82.1" class="st1" width="11.7" height="11.7"/>
	<rect x="93.8" y="82.1" class="st1" width="11.7" height="11.7"/>
	<rect x="105.6" y="82.1" class="st1" width="11.7" height="11.7"/>
	<rect x="117.3" y="82.1" class="st1" width="11.7" height="11.7"/>
	<rect x="129" y="82.1" class="st1" width="11.7" height="11.7"/>
	<rect x="140.7" y="82.1" class="st1" width="11.7" height="11.7"/>
	<rect x="152.5" y="82.1" class="st1" width="11.7" height="11.7"/>
	<rect x="164.2" y="82.1" class="st1" width="11.7" height="11.7"/>
	<rect x="175.9" y="82.1" class="st1" width="11.7" height="11.7"/>
	<rect x="187.7" y="82.1" class="st1" width="11.7" height="11.7"/>
	<rect x="199.4" y="82.1" class="st1" width="11.7" height="11.7"/>
	<rect x="211.1" y="82.1" class="st1" width="11.7" height="11.7"/>
	<rect x="222.8" y="82.1" class="st1" width="11.7" height="11.7"/>
	<rect x="234.6" y="82.1" class="st1" width="11.7" height="11.7"/>
	<rect x="246.3" y="82.1" class="st1" width="11.7" height="11.7"/>
	<rect x="11.7" y="82.1" class="st1" width="11.7" height="11.7"/>
	<rect y="82.1" class="st1" width="11.7" height="11.7"/>
	<rect y="70.4" class="st1" width="11.7" height="11.7"/>
	<rect y="35.2" class="st1" width="11.7" height="11.7"/>
	<rect y="46.9" class="st1" width="11.7" height="11.7"/>
	<rect y="58.6" class="st1" width="11.7" height="11.7"/>
</g>
<g id="Calque_1">
	<g>
		<rect x="35.2" y="35.2" class="st2" width="11.7" height="11.7"/>
		<rect x="46.9" y="46.9" class="st2" width="11.7" height="11.7"/>
		<rect x="58.6" y="46.9" class="st3" width="11.7" height="11.7"/>
		<rect x="46.9" y="35.2" class="st4" width="11.7" height="11.7"/>
		<rect x="46.9" y="58.6" class="st5" width="11.7" height="11.7"/>
		<polygon class="st6" points="35.2,46.9 35.2,35.2 23.5,35.2 23.5,70.4 35.2,70.4 35.2,58.6 46.9,58.6 46.9,46.9 		"/>
		<rect x="35.2" y="23.5" class="st6" width="23.5" height="11.7"/>
	</g>
	<path class="st6" d="M93.8,35.2H110v4.2H98.5v6.5h8.5V50h-8.5v8.5h-4.7V35.2z"/>
	<path class="st6" d="M118.3,35.2h4.9l9.5,23.4h-5.2l-2.2-5.5h-9.3l-2.2,5.5h-4.9L118.3,35.2z M123.9,49.1l-3.3-9.7l-3.3,9.7H123.9z
		"/>
	<path class="st6" d="M145.5,35.2h8.3c1.6,0,2.9,0.2,4,0.7c1.1,0.5,2,1.1,2.7,1.8c0.7,0.7,1.2,1.5,1.5,2.4c0.3,0.9,0.5,1.7,0.5,2.5
		c0,1.6-0.3,3-1,4.2c-0.7,1.2-1.7,2.2-3.2,2.9l5.8,8.8h-5.3l-5.1-8.2h-3.6v8.2h-4.5V35.2z M153.9,46.4c1.2,0,2.1-0.3,2.8-1
		c0.7-0.7,1-1.5,1-2.5c0-1.1-0.4-1.9-1-2.6c-0.7-0.7-1.6-1-2.7-1h-3.8v7.2H153.9z"/>
	<path class="st6" d="M167.9,41h4.3l0.1,2c0.2-0.2,0.5-0.5,0.8-0.8c0.3-0.3,0.7-0.5,1.2-0.7c0.5-0.2,1-0.4,1.6-0.6
		c0.6-0.1,1.2-0.2,2-0.2c1.3,0,2.5,0.3,3.5,0.8c1,0.5,1.8,1.2,2.5,2.1c0.6,0.9,1.1,1.8,1.5,2.9c0.3,1.1,0.5,2.2,0.5,3.4
		c0,1.4-0.2,2.5-0.6,3.5c-0.4,1-0.9,1.8-1.5,2.5c-1,1.2-2.1,2-3.3,2.5c-1.2,0.5-2.4,0.7-3.7,0.7c-0.6,0-1.1,0-1.5-0.1
		s-0.8-0.1-1.1-0.2c-0.3-0.1-0.6-0.2-0.9-0.3c-0.3-0.1-0.6-0.2-0.9-0.4v7.8h-4.4V41z M172.3,54.3c0.9,0.7,2.2,1.1,4,1.1
		c0.8,0,1.5-0.2,2.1-0.5c0.6-0.3,1.2-0.7,1.6-1.2c0.4-0.5,0.8-1.1,1-1.7c0.2-0.6,0.3-1.3,0.3-2c0-0.7-0.1-1.4-0.2-2.1
		c-0.2-0.6-0.4-1.2-0.8-1.7c-0.4-0.5-0.8-0.9-1.4-1.2c-0.6-0.3-1.3-0.4-2.1-0.4c-0.7,0-1.3,0.1-1.8,0.4c-0.5,0.3-1,0.7-1.4,1.1
		c-0.4,0.4-0.7,0.9-0.9,1.5c-0.2,0.5-0.3,1.1-0.3,1.6V54.3z"/>
	<path class="st6" d="M199.2,41h4.4v10.6c0,1.1,0.3,2,0.9,2.6c0.6,0.6,1.4,0.9,2.4,0.9c0.6,0,1.2-0.1,1.7-0.4c0.5-0.2,1-0.6,1.3-1
		c0.4-0.4,0.7-0.9,0.9-1.5c0.2-0.6,0.3-1.2,0.3-1.8V41h4.4v17.6h-4.2l-0.1-2c-0.2,0.2-0.5,0.5-0.8,0.8c-0.3,0.3-0.7,0.5-1.1,0.8
		c-0.4,0.2-0.9,0.4-1.5,0.6c-0.5,0.1-1.2,0.2-1.9,0.2c-2.2,0-3.9-0.7-5-2c-1.1-1.3-1.7-3.1-1.7-5.3V41z"/>
	<path class="st6" d="M221.7,53.5c0.5,0.5,1.2,1,2.1,1.4c0.8,0.4,1.8,0.5,2.9,0.5c0.9,0,1.7-0.1,2.3-0.4c0.6-0.2,0.9-0.7,0.9-1.2
		c0-0.2-0.1-0.5-0.2-0.7c-0.1-0.2-0.3-0.4-0.6-0.6c-0.3-0.2-0.8-0.4-1.3-0.6c-0.6-0.2-1.3-0.4-2.3-0.6c-0.6-0.1-1.2-0.3-1.9-0.6
		c-0.6-0.2-1.3-0.6-1.8-1c-0.6-0.4-1-1-1.4-1.6c-0.4-0.6-0.5-1.3-0.5-2.2c0-0.9,0.2-1.7,0.6-2.3c0.4-0.7,1-1.3,1.7-1.7
		c0.7-0.5,1.5-0.8,2.3-1.1c0.9-0.2,1.7-0.4,2.6-0.4c1.5,0,2.9,0.2,4,0.5s2.1,0.8,2.9,1.5l-2.3,3.1c-0.5-0.3-1.1-0.7-1.9-1
		c-0.8-0.3-1.7-0.4-2.7-0.4s-1.8,0.2-2.2,0.5c-0.4,0.3-0.6,0.7-0.6,1.1c0,0.5,0.3,1,1,1.3c0.7,0.3,1.8,0.6,3.2,1
		c0.9,0.2,1.7,0.4,2.4,0.7c0.7,0.3,1.3,0.7,1.8,1.1c0.5,0.4,0.9,1,1.2,1.6c0.3,0.6,0.4,1.3,0.4,2.2c0,0.8-0.2,1.6-0.6,2.3
		c-0.4,0.7-0.9,1.3-1.6,1.7c-0.7,0.5-1.5,0.8-2.4,1.1c-0.9,0.3-1.9,0.4-2.9,0.4c-1.6,0-3.1-0.2-4.5-0.7c-1.3-0.5-2.4-1.1-3.2-2
		L221.7,53.5z"/>
	<path class="st6" d="M135.7,35.2h4.4v23.4h-4.4V35.2z"/>
	<path class="st6" d="M189.7,35.2h4.4v17.1c0,1.9,0.7,2.4,1.8,2.4c0.3,0,0.7,0,0.7,0v3.8c0,0-0.7,0.1-1.4,0.1
		c-2.4,0-5.5-0.6-5.5-5.6V35.2z"/>
</g>
</svg>
