<svg xmlns="http://www.w3.org/2000/svg" viewBox="0 0 290.95 340.41"><defs><style>.cls-1,.cls-10,.cls-2{fill:#fff;}.cls-1{stroke:#2f245f;}.cls-1,.cls-11,.cls-2,.cls-3,.cls-4,.cls-5{stroke-miterlimit:10;stroke-width:2px;}.cls-11,.cls-2,.cls-4{stroke:#ef445a;}.cls-11,.cls-3{fill:none;}.cls-3,.cls-5{stroke:#f69064;}.cls-4,.cls-9{fill:#ef445a;}.cls-5,.cls-7{fill:#f69064;}.cls-6{fill:#bbb;}.cls-8{fill:#2f245f;}</style></defs><title>fairplus-squads</title><g id="WPs"><rect class="cls-1" x="272.76" y="57.11" width="36.48" height="201" rx="5.07" ry="5.07" transform="translate(291.8 -246.56) rotate(90)"/><rect class="cls-2" x="244.35" y="26.28" width="45.6" height="245" rx="5.67" ry="5.67"/><rect class="cls-1" x="272.76" y="98.42" width="36.48" height="201" rx="5.07" ry="5.07" transform="translate(333.11 -205.24) rotate(90)"/><rect class="cls-1" x="272.76" y="140.12" width="36.48" height="201" rx="5.07" ry="5.07" transform="translate(374.81 -163.54) rotate(90)"/><rect class="cls-1" x="272.76" y="181.93" width="36.48" height="201" rx="5.07" ry="5.07" transform="translate(416.62 -121.74) rotate(90)"/><rect class="cls-1" x="272.76" y="223.43" width="36.48" height="201" rx="5.07" ry="5.07" transform="translate(458.12 -80.23) rotate(90)"/><rect class="cls-1" x="271.34" y="265.49" width="36.48" height="201" rx="5.07" ry="5.07" transform="translate(498.76 -36.76) rotate(90)"/></g><g id="Squads"><rect class="cls-3" x="112.43" y="239.94" width="264" height="44" rx="5.67" ry="5.67" transform="translate(349.56 -95.65) rotate(90)"/><rect class="cls-3" x="204.79" y="239.94" width="264" height="44" rx="5.67" ry="5.67" transform="translate(441.92 -188.01) rotate(90)"/><rect class="cls-4" x="161.73" y="309.01" width="127.9" height="30.4" rx="5.67" ry="5.67"/><rect class="cls-5" x="2.86" y="309.01" width="127.9" height="30.4" rx="5.67" ry="5.67"/></g><g id="Little_men" data-name="Little men"><path class="cls-6" d="M422.15,171.09a8.41,8.41,0,0,0-2.9-6.62,4.16,4.16,0,0,1-6.43,0,8.41,8.41,0,0,0-2.9,6.62,19.7,19.7,0,0,0,6.06.9A20.91,20.91,0,0,0,422.15,171.09Z" transform="translate(-156.81 -113.16)"/><circle class="cls-6" cx="259.23" cy="48.65" r="3.38"/><path class="cls-6" d="M422.34,201.49a8.4,8.4,0,0,0-2.9-6.61,4.18,4.18,0,0,1-6.43,0,8.4,8.4,0,0,0-2.9,6.61,19.43,19.43,0,0,0,6.06.91A20.71,20.71,0,0,0,422.34,201.49Z" transform="translate(-156.81 -113.16)"/><circle class="cls-6" cx="259.41" cy="79.06" r="3.38"/><path class="cls-6" d="M436.38,185.31a8.41,8.41,0,0,0-2.9-6.62,4.19,4.19,0,0,1-6.44,0,8.4,8.4,0,0,0-2.89,6.62,19.62,19.62,0,0,0,6.06.9A20.91,20.91,0,0,0,436.38,185.31Z" transform="translate(-156.81 -113.16)"/><circle class="cls-6" cx="273.45" cy="62.87" r="3.38"/><path class="cls-6" d="M421.34,279.48a8.44,8.44,0,0,0-2.9-6.62,4.16,4.16,0,0,1-6.43,0,8.44,8.44,0,0,0-2.9,6.62,19.7,19.7,0,0,0,6.06.9A20.91,20.91,0,0,0,421.34,279.48Z" transform="translate(-156.81 -113.16)"/><circle class="cls-6" cx="258.42" cy="157.05" r="3.38"/><path class="cls-6" d="M421.53,309.89a8.41,8.41,0,0,0-2.9-6.62,4.17,4.17,0,0,1-6.44,0,8.41,8.41,0,0,0-2.9,6.62,19.7,19.7,0,0,0,6.06.9A20.94,20.94,0,0,0,421.53,309.89Z" transform="translate(-156.81 -113.16)"/><circle class="cls-6" cx="258.6" cy="187.45" r="3.38"/><path class="cls-6" d="M435.57,293.7a8.44,8.44,0,0,0-2.9-6.62,4.17,4.17,0,0,1-6.44,0,8.44,8.44,0,0,0-2.9,6.62,19.7,19.7,0,0,0,6.06.9A20.94,20.94,0,0,0,435.57,293.7Z" transform="translate(-156.81 -113.16)"/><circle class="cls-6" cx="272.64" cy="171.27" r="3.38"/><path class="cls-6" d="M423.94,225.28a8.4,8.4,0,0,1,2.9-6.61,4.19,4.19,0,0,0,6.44,0,8.4,8.4,0,0,1,2.9,6.61,19.5,19.5,0,0,1-6.06.91A20.82,20.82,0,0,1,423.94,225.28Z" transform="translate(-156.81 -113.16)"/><circle class="cls-6" cx="273.25" cy="102.85" r="3.38"/><path class="cls-6" d="M423.76,255.69a8.4,8.4,0,0,1,2.9-6.61,4.18,4.18,0,0,0,6.43,0,8.4,8.4,0,0,1,2.9,6.61,19.7,19.7,0,0,1-6.06.9A20.91,20.91,0,0,1,423.76,255.69Z" transform="translate(-156.81 -113.16)"/><circle class="cls-6" cx="273.07" cy="133.26" r="3.38"/><path class="cls-6" d="M409.72,239.5a8.4,8.4,0,0,1,2.9-6.61,4.18,4.18,0,0,0,6.43,0,8.4,8.4,0,0,1,2.9,6.61,19.5,19.5,0,0,1-6.06.91A20.71,20.71,0,0,1,409.72,239.5Z" transform="translate(-156.81 -113.16)"/><circle class="cls-6" cx="259.03" cy="117.07" r="3.38"/><path class="cls-6" d="M424.33,333.68a8.41,8.41,0,0,1,2.9-6.62,4.16,4.16,0,0,0,6.43,0,8.41,8.41,0,0,1,2.9,6.62,19.7,19.7,0,0,1-6.06.9A20.91,20.91,0,0,1,424.33,333.68Z" transform="translate(-156.81 -113.16)"/><circle class="cls-6" cx="273.64" cy="211.24" r="3.38"/><path class="cls-6" d="M424.15,364.09a8.4,8.4,0,0,1,2.89-6.62,4.17,4.17,0,0,0,6.44,0,8.41,8.41,0,0,1,2.9,6.62,19.7,19.7,0,0,1-6.06.9A20.91,20.91,0,0,1,424.15,364.09Z" transform="translate(-156.81 -113.16)"/><circle class="cls-6" cx="273.45" cy="241.65" r="3.38"/><path class="cls-6" d="M410.11,347.9a8.38,8.38,0,0,1,2.9-6.62,4.16,4.16,0,0,0,6.43,0,8.41,8.41,0,0,1,2.9,6.62,19.7,19.7,0,0,1-6.06.9A20.91,20.91,0,0,1,410.11,347.9Z" transform="translate(-156.81 -113.16)"/><circle class="cls-6" cx="259.41" cy="225.46" r="3.38"/><path class="cls-7" d="M334.52,157.47a8.4,8.4,0,0,0-2.9-6.61,4.19,4.19,0,0,1-6.44,0,8.4,8.4,0,0,0-2.9,6.61,19.5,19.5,0,0,0,6.06.91A20.73,20.73,0,0,0,334.52,157.47Z" transform="translate(-156.81 -113.16)"/><circle class="cls-7" cx="171.59" cy="35.04" r="3.38"/><path class="cls-7" d="M350.36,169.71a8.41,8.41,0,0,0-2.9-6.62,4.16,4.16,0,0,1-6.43,0,8.41,8.41,0,0,0-2.9,6.62,19.7,19.7,0,0,0,6.06.9A20.91,20.91,0,0,0,350.36,169.71Z" transform="translate(-156.81 -113.16)"/><circle class="cls-7" cx="187.43" cy="47.27" r="3.38"/><path class="cls-6" d="M288.28,157.47a8.4,8.4,0,0,0-2.9-6.61,4.18,4.18,0,0,1-6.43,0,8.4,8.4,0,0,0-2.9,6.61,19.5,19.5,0,0,0,6.06.91A20.71,20.71,0,0,0,288.28,157.47Z" transform="translate(-156.81 -113.16)"/><circle class="cls-6" cx="125.35" cy="35.04" r="3.38"/><path class="cls-6" d="M304.12,169.71a8.41,8.41,0,0,0-2.9-6.62,4.16,4.16,0,0,1-6.43,0,8.41,8.41,0,0,0-2.9,6.62,19.7,19.7,0,0,0,6.06.9A20.91,20.91,0,0,0,304.12,169.71Z" transform="translate(-156.81 -113.16)"/><circle class="cls-6" cx="141.19" cy="47.27" r="3.38"/><path class="cls-7" d="M242,157.47a8.4,8.4,0,0,0-2.9-6.61,4.18,4.18,0,0,1-6.43,0,8.4,8.4,0,0,0-2.9,6.61,19.5,19.5,0,0,0,6.06.91A20.71,20.71,0,0,0,242,157.47Z" transform="translate(-156.81 -113.16)"/><circle class="cls-7" cx="79.11" cy="35.04" r="3.38"/><path class="cls-7" d="M257.88,169.71a8.41,8.41,0,0,0-2.9-6.62,4.16,4.16,0,0,1-6.43,0,8.41,8.41,0,0,0-2.9,6.62,19.7,19.7,0,0,0,6.06.9A20.91,20.91,0,0,0,257.88,169.71Z" transform="translate(-156.81 -113.16)"/><circle class="cls-7" cx="94.96" cy="47.27" r="3.38"/><path class="cls-7" d="M334.52,199.13a8.41,8.41,0,0,0-2.9-6.62,4.17,4.17,0,0,1-6.44,0,8.41,8.41,0,0,0-2.9,6.62,19.7,19.7,0,0,0,6.06.9A20.94,20.94,0,0,0,334.52,199.13Z" transform="translate(-156.81 -113.16)"/><circle class="cls-7" cx="171.59" cy="76.69" r="3.38"/><path class="cls-7" d="M350.36,211.36a8.4,8.4,0,0,0-2.9-6.61,4.18,4.18,0,0,1-6.43,0,8.4,8.4,0,0,0-2.9,6.61,19.7,19.7,0,0,0,6.06.9A20.91,20.91,0,0,0,350.36,211.36Z" transform="translate(-156.81 -113.16)"/><circle class="cls-7" cx="187.43" cy="88.93" r="3.38"/><path class="cls-6" d="M288.28,199.13a8.41,8.41,0,0,0-2.9-6.62,4.16,4.16,0,0,1-6.43,0,8.41,8.41,0,0,0-2.9,6.62,19.7,19.7,0,0,0,6.06.9A20.91,20.91,0,0,0,288.28,199.13Z" transform="translate(-156.81 -113.16)"/><circle class="cls-6" cx="125.35" cy="76.69" r="3.38"/><path class="cls-6" d="M304.12,211.36a8.4,8.4,0,0,0-2.9-6.61,4.18,4.18,0,0,1-6.43,0,8.4,8.4,0,0,0-2.9,6.61,19.7,19.7,0,0,0,6.06.9A20.91,20.91,0,0,0,304.12,211.36Z" transform="translate(-156.81 -113.16)"/><circle class="cls-6" cx="141.19" cy="88.93" r="3.38"/><path class="cls-7" d="M242,199.13a8.41,8.41,0,0,0-2.9-6.62,4.16,4.16,0,0,1-6.43,0,8.41,8.41,0,0,0-2.9,6.62,19.7,19.7,0,0,0,6.06.9A20.91,20.91,0,0,0,242,199.13Z" transform="translate(-156.81 -113.16)"/><circle class="cls-7" cx="79.11" cy="76.69" r="3.38"/><path class="cls-7" d="M257.88,211.36a8.4,8.4,0,0,0-2.9-6.61,4.18,4.18,0,0,1-6.43,0,8.4,8.4,0,0,0-2.9,6.61,19.7,19.7,0,0,0,6.06.9A20.91,20.91,0,0,0,257.88,211.36Z" transform="translate(-156.81 -113.16)"/><circle class="cls-7" cx="94.96" cy="88.93" r="3.38"/><path class="cls-7" d="M334.52,240.78a8.4,8.4,0,0,0-2.9-6.61,4.19,4.19,0,0,1-6.44,0,8.4,8.4,0,0,0-2.9,6.61,19.7,19.7,0,0,0,6.06.9A20.94,20.94,0,0,0,334.52,240.78Z" transform="translate(-156.81 -113.16)"/><circle class="cls-7" cx="171.59" cy="118.35" r="3.38"/><path class="cls-7" d="M350.36,253a8.41,8.41,0,0,0-2.9-6.62,4.18,4.18,0,0,1-6.43,0,8.41,8.41,0,0,0-2.9,6.62,19.7,19.7,0,0,0,6.06.9A20.91,20.91,0,0,0,350.36,253Z" transform="translate(-156.81 -113.16)"/><circle class="cls-7" cx="187.43" cy="130.58" r="3.38"/><path class="cls-6" d="M288.28,240.78a8.4,8.4,0,0,0-2.9-6.61,4.18,4.18,0,0,1-6.43,0,8.4,8.4,0,0,0-2.9,6.61,19.7,19.7,0,0,0,6.06.9A20.91,20.91,0,0,0,288.28,240.78Z" transform="translate(-156.81 -113.16)"/><circle class="cls-6" cx="125.35" cy="118.35" r="3.38"/><path class="cls-6" d="M304.12,253a8.41,8.41,0,0,0-2.9-6.62,4.18,4.18,0,0,1-6.43,0,8.41,8.41,0,0,0-2.9,6.62,19.7,19.7,0,0,0,6.06.9A20.91,20.91,0,0,0,304.12,253Z" transform="translate(-156.81 -113.16)"/><circle class="cls-6" cx="141.19" cy="130.58" r="3.38"/><path class="cls-7" d="M242,240.78a8.4,8.4,0,0,0-2.9-6.61,4.18,4.18,0,0,1-6.43,0,8.4,8.4,0,0,0-2.9,6.61,19.7,19.7,0,0,0,6.06.9A20.91,20.91,0,0,0,242,240.78Z" transform="translate(-156.81 -113.16)"/><circle class="cls-7" cx="79.11" cy="118.35" r="3.38"/><path class="cls-7" d="M257.88,253a8.41,8.41,0,0,0-2.9-6.62,4.18,4.18,0,0,1-6.43,0,8.41,8.41,0,0,0-2.9,6.62,19.7,19.7,0,0,0,6.06.9A20.91,20.91,0,0,0,257.88,253Z" transform="translate(-156.81 -113.16)"/><circle class="cls-7" cx="94.96" cy="130.58" r="3.38"/><path class="cls-7" d="M334.52,282.44a8.41,8.41,0,0,0-2.9-6.62,4.17,4.17,0,0,1-6.44,0,8.41,8.41,0,0,0-2.9,6.62,19.7,19.7,0,0,0,6.06.9A20.94,20.94,0,0,0,334.52,282.44Z" transform="translate(-156.81 -113.16)"/><circle class="cls-7" cx="171.59" cy="160" r="3.38"/><path class="cls-7" d="M350.36,294.67a8.44,8.44,0,0,0-2.9-6.62,4.16,4.16,0,0,1-6.43,0,8.44,8.44,0,0,0-2.9,6.62,19.7,19.7,0,0,0,6.06.9A20.91,20.91,0,0,0,350.36,294.67Z" transform="translate(-156.81 -113.16)"/><circle class="cls-7" cx="187.43" cy="172.23" r="3.38"/><path class="cls-6" d="M288.28,282.44a8.41,8.41,0,0,0-2.9-6.62,4.16,4.16,0,0,1-6.43,0,8.41,8.41,0,0,0-2.9,6.62,19.7,19.7,0,0,0,6.06.9A20.91,20.91,0,0,0,288.28,282.44Z" transform="translate(-156.81 -113.16)"/><circle class="cls-6" cx="125.35" cy="160" r="3.38"/><path class="cls-6" d="M304.12,294.67a8.44,8.44,0,0,0-2.9-6.62,4.16,4.16,0,0,1-6.43,0,8.44,8.44,0,0,0-2.9,6.62,19.7,19.7,0,0,0,6.06.9A20.91,20.91,0,0,0,304.12,294.67Z" transform="translate(-156.81 -113.16)"/><circle class="cls-6" cx="141.19" cy="172.23" r="3.38"/><path class="cls-7" d="M242,282.44a8.41,8.41,0,0,0-2.9-6.62,4.16,4.16,0,0,1-6.43,0,8.41,8.41,0,0,0-2.9,6.62,19.7,19.7,0,0,0,6.06.9A20.91,20.91,0,0,0,242,282.44Z" transform="translate(-156.81 -113.16)"/><circle class="cls-7" cx="79.11" cy="160" r="3.38"/><path class="cls-7" d="M257.88,294.67a8.44,8.44,0,0,0-2.9-6.62,4.16,4.16,0,0,1-6.43,0,8.44,8.44,0,0,0-2.9,6.62,19.7,19.7,0,0,0,6.06.9A20.91,20.91,0,0,0,257.88,294.67Z" transform="translate(-156.81 -113.16)"/><circle class="cls-7" cx="94.96" cy="172.23" r="3.38"/><path class="cls-7" d="M334.52,324.09a8.44,8.44,0,0,0-2.9-6.62,4.17,4.17,0,0,1-6.44,0,8.44,8.44,0,0,0-2.9,6.62,19.7,19.7,0,0,0,6.06.9A20.94,20.94,0,0,0,334.52,324.09Z" transform="translate(-156.81 -113.16)"/><circle class="cls-7" cx="171.59" cy="201.66" r="3.38"/><path class="cls-7" d="M350.36,336.33a8.41,8.41,0,0,0-2.9-6.62,4.18,4.18,0,0,1-6.43,0,8.41,8.41,0,0,0-2.9,6.62,19.7,19.7,0,0,0,6.06.9A20.91,20.91,0,0,0,350.36,336.33Z" transform="translate(-156.81 -113.16)"/><circle class="cls-7" cx="187.43" cy="213.89" r="3.38"/><path class="cls-6" d="M288.28,324.09a8.44,8.44,0,0,0-2.9-6.62,4.16,4.16,0,0,1-6.43,0,8.44,8.44,0,0,0-2.9,6.62,19.7,19.7,0,0,0,6.06.9A20.91,20.91,0,0,0,288.28,324.09Z" transform="translate(-156.81 -113.16)"/><circle class="cls-6" cx="125.35" cy="201.66" r="3.38"/><path class="cls-6" d="M304.12,336.33a8.41,8.41,0,0,0-2.9-6.62,4.18,4.18,0,0,1-6.43,0,8.41,8.41,0,0,0-2.9,6.62,19.7,19.7,0,0,0,6.06.9A20.91,20.91,0,0,0,304.12,336.33Z" transform="translate(-156.81 -113.16)"/><circle class="cls-6" cx="141.19" cy="213.89" r="3.38"/><path class="cls-7" d="M242,324.09a8.44,8.44,0,0,0-2.9-6.62,4.16,4.16,0,0,1-6.43,0,8.44,8.44,0,0,0-2.9,6.62,19.7,19.7,0,0,0,6.06.9A20.91,20.91,0,0,0,242,324.09Z" transform="translate(-156.81 -113.16)"/><circle class="cls-7" cx="79.11" cy="201.66" r="3.38"/><path class="cls-7" d="M257.88,336.33a8.41,8.41,0,0,0-2.9-6.62,4.18,4.18,0,0,1-6.43,0,8.41,8.41,0,0,0-2.9,6.62,19.7,19.7,0,0,0,6.06.9A20.91,20.91,0,0,0,257.88,336.33Z" transform="translate(-156.81 -113.16)"/><circle class="cls-7" cx="94.96" cy="213.89" r="3.38"/><path class="cls-7" d="M334.52,365.75a8.41,8.41,0,0,0-2.9-6.62,4.19,4.19,0,0,1-6.44,0,8.41,8.41,0,0,0-2.9,6.62,19.7,19.7,0,0,0,6.06.9A20.94,20.94,0,0,0,334.52,365.75Z" transform="translate(-156.81 -113.16)"/><circle class="cls-7" cx="171.59" cy="243.31" r="3.38"/><path class="cls-7" d="M350.36,378a8.41,8.41,0,0,0-2.9-6.62,4.16,4.16,0,0,1-6.43,0,8.41,8.41,0,0,0-2.9,6.62,19.7,19.7,0,0,0,6.06.9A20.91,20.91,0,0,0,350.36,378Z" transform="translate(-156.81 -113.16)"/><circle class="cls-7" cx="187.43" cy="255.54" r="3.38"/><path class="cls-6" d="M288.28,365.75a8.41,8.41,0,0,0-2.9-6.62,4.18,4.18,0,0,1-6.43,0,8.41,8.41,0,0,0-2.9,6.62,19.7,19.7,0,0,0,6.06.9A20.91,20.91,0,0,0,288.28,365.75Z" transform="translate(-156.81 -113.16)"/><circle class="cls-6" cx="125.35" cy="243.31" r="3.38"/><path class="cls-6" d="M304.12,378a8.41,8.41,0,0,0-2.9-6.62,4.16,4.16,0,0,1-6.43,0,8.41,8.41,0,0,0-2.9,6.62,19.7,19.7,0,0,0,6.06.9A20.91,20.91,0,0,0,304.12,378Z" transform="translate(-156.81 -113.16)"/><circle class="cls-6" cx="141.19" cy="255.54" r="3.38"/><path class="cls-7" d="M242,365.75a8.41,8.41,0,0,0-2.9-6.62,4.18,4.18,0,0,1-6.43,0,8.41,8.41,0,0,0-2.9,6.62,19.7,19.7,0,0,0,6.06.9A20.91,20.91,0,0,0,242,365.75Z" transform="translate(-156.81 -113.16)"/><circle class="cls-7" cx="79.11" cy="243.31" r="3.38"/><path class="cls-7" d="M257.88,378a8.41,8.41,0,0,0-2.9-6.62,4.16,4.16,0,0,1-6.43,0,8.41,8.41,0,0,0-2.9,6.62,19.7,19.7,0,0,0,6.06.9A20.91,20.91,0,0,0,257.88,378Z" transform="translate(-156.81 -113.16)"/><circle class="cls-7" cx="94.96" cy="255.54" r="3.38"/><path class="cls-6" d="M212.87,166.21a8.41,8.41,0,0,0-2.9-6.62,4.18,4.18,0,0,1-6.43,0,8.41,8.41,0,0,0-2.9,6.62,19.7,19.7,0,0,0,6.06.9A20.91,20.91,0,0,0,212.87,166.21Z" transform="translate(-156.81 -113.16)"/><circle class="cls-6" cx="49.94" cy="43.77" r="3.38"/><path class="cls-6" d="M378.77,162.63a8.38,8.38,0,0,0-2.9-6.62,4.18,4.18,0,0,1-6.43,0,8.41,8.41,0,0,0-2.9,6.62,19.7,19.7,0,0,0,6.06.9A20.91,20.91,0,0,0,378.77,162.63Z" transform="translate(-156.81 -113.16)"/><circle class="cls-6" cx="215.85" cy="40.19" r="3.38"/><path class="cls-6" d="M212.87,207.78a8.4,8.4,0,0,0-2.9-6.61,4.18,4.18,0,0,1-6.43,0,8.4,8.4,0,0,0-2.9,6.61,19.7,19.7,0,0,0,6.06.9A20.91,20.91,0,0,0,212.87,207.78Z" transform="translate(-156.81 -113.16)"/><circle class="cls-6" cx="49.94" cy="85.35" r="3.38"/><path class="cls-6" d="M378.77,204.2a8.37,8.37,0,0,0-2.9-6.61,4.18,4.18,0,0,1-6.43,0,8.4,8.4,0,0,0-2.9,6.61,19.7,19.7,0,0,0,6.06.9A20.91,20.91,0,0,0,378.77,204.2Z" transform="translate(-156.81 -113.16)"/><circle class="cls-6" cx="215.85" cy="81.77" r="3.38"/><path class="cls-6" d="M212.87,249.29a8.41,8.41,0,0,0-2.9-6.62,4.16,4.16,0,0,1-6.43,0,8.41,8.41,0,0,0-2.9,6.62,19.7,19.7,0,0,0,6.06.9A20.91,20.91,0,0,0,212.87,249.29Z" transform="translate(-156.81 -113.16)"/><circle class="cls-6" cx="49.94" cy="126.85" r="3.38"/><path class="cls-6" d="M378.77,245.71a8.38,8.38,0,0,0-2.9-6.62,4.16,4.16,0,0,1-6.43,0,8.41,8.41,0,0,0-2.9,6.62,19.7,19.7,0,0,0,6.06.9A20.91,20.91,0,0,0,378.77,245.71Z" transform="translate(-156.81 -113.16)"/><circle class="cls-6" cx="215.85" cy="123.27" r="3.38"/><path class="cls-6" d="M212.87,291.1a8.41,8.41,0,0,0-2.9-6.62,4.18,4.18,0,0,1-6.43,0,8.41,8.41,0,0,0-2.9,6.62,19.7,19.7,0,0,0,6.06.9A20.91,20.91,0,0,0,212.87,291.1Z" transform="translate(-156.81 -113.16)"/><circle class="cls-6" cx="49.94" cy="168.66" r="3.38"/><path class="cls-6" d="M378.77,287.52a8.38,8.38,0,0,0-2.9-6.62,4.18,4.18,0,0,1-6.43,0,8.41,8.41,0,0,0-2.9,6.62,19.7,19.7,0,0,0,6.06.9A20.91,20.91,0,0,0,378.77,287.52Z" transform="translate(-156.81 -113.16)"/><circle class="cls-6" cx="215.85" cy="165.08" r="3.38"/><path class="cls-6" d="M212.87,332.6A8.41,8.41,0,0,0,210,326a4.16,4.16,0,0,1-6.43,0,8.41,8.41,0,0,0-2.9,6.62,19.7,19.7,0,0,0,6.06.9A20.91,20.91,0,0,0,212.87,332.6Z" transform="translate(-156.81 -113.16)"/><circle class="cls-6" cx="49.94" cy="210.16" r="3.38"/><path class="cls-6" d="M378.77,329a8.38,8.38,0,0,0-2.9-6.62,4.16,4.16,0,0,1-6.43,0,8.41,8.41,0,0,0-2.9,6.62,19.7,19.7,0,0,0,6.06.9A20.91,20.91,0,0,0,378.77,329Z" transform="translate(-156.81 -113.16)"/><circle class="cls-6" cx="215.85" cy="206.58" r="3.38"/><path class="cls-6" d="M212.87,374.66A8.41,8.41,0,0,0,210,368a4.18,4.18,0,0,1-6.43,0,8.41,8.41,0,0,0-2.9,6.62,19.7,19.7,0,0,0,6.06.9A20.91,20.91,0,0,0,212.87,374.66Z" transform="translate(-156.81 -113.16)"/><circle class="cls-6" cx="49.94" cy="252.22" r="3.38"/><path class="cls-6" d="M378.77,371.08a8.38,8.38,0,0,0-2.9-6.62,4.18,4.18,0,0,1-6.43,0,8.41,8.41,0,0,0-2.9,6.62,19.7,19.7,0,0,0,6.06.9A20.91,20.91,0,0,0,378.77,371.08Z" transform="translate(-156.81 -113.16)"/><circle class="cls-6" cx="215.85" cy="248.64" r="3.38"/></g><g id="Labels"><path class="cls-8" d="M169.27,153.32,166.58,162h-1.46l-1.9-5.93a3.61,3.61,0,0,1-.14-.53c0,.1-.05.2-.07.29s0,.17-.08.24L161,162h-1.46l-2.69-8.68h1.35a.63.63,0,0,1,.35.1.47.47,0,0,1,.19.27l1.48,5.19q0,.19.09.42c0,.15.06.3.09.47,0-.17.07-.33.11-.48l.12-.41,1.71-5.19a.56.56,0,0,1,.53-.37h.47a.56.56,0,0,1,.35.11.57.57,0,0,1,.19.26l1.7,5.19a6.59,6.59,0,0,1,.23.86c.05-.32.11-.6.17-.86l1.48-5.19a.42.42,0,0,1,.18-.26.61.61,0,0,1,.35-.11Z" transform="translate(-156.81 -113.16)"/><path class="cls-8" d="M173.16,153.32a4.76,4.76,0,0,1,1.5.21,2.64,2.64,0,0,1,1.05.57,2.24,2.24,0,0,1,.62.87,3.27,3.27,0,0,1,0,2.28,2.37,2.37,0,0,1-.63.9,3,3,0,0,1-1.05.59,4.76,4.76,0,0,1-1.48.21H172V162h-1.61v-8.68Zm0,4.37a2.55,2.55,0,0,0,.77-.11,1.56,1.56,0,0,0,.55-.32,1.25,1.25,0,0,0,.33-.51,1.94,1.94,0,0,0,.11-.66,1.81,1.81,0,0,0-.11-.63,1.15,1.15,0,0,0-.33-.48,1.41,1.41,0,0,0-.54-.3,2.57,2.57,0,0,0-.78-.11H172v3.12Z" transform="translate(-156.81 -113.16)"/><path class="cls-8" d="M183,160.89V162h-4.8v-1.11H180v-5.06c0-.2,0-.4,0-.62l-1.25,1a.54.54,0,0,1-.22.1.41.41,0,0,1-.19,0l-.17-.07a.36.36,0,0,1-.11-.1l-.46-.64,2.64-2.25h1.22v7.58Z" transform="translate(-156.81 -113.16)"/><path class="cls-8" d="M169.27,195.21l-2.69,8.68h-1.46l-1.9-5.93a4,4,0,0,1-.14-.53c0,.1-.05.19-.07.28s0,.17-.08.25L161,203.89h-1.46l-2.69-8.68h1.35a.56.56,0,0,1,.35.1.41.41,0,0,1,.19.27l1.48,5.19c0,.12.06.26.09.41l.09.47c0-.16.07-.32.11-.47s.08-.29.12-.41l1.71-5.19a.56.56,0,0,1,.18-.26.58.58,0,0,1,.35-.11h.47a.56.56,0,0,1,.35.1.66.66,0,0,1,.19.27l1.7,5.19a6.41,6.41,0,0,1,.23.85c.05-.31.11-.6.17-.85l1.48-5.19a.42.42,0,0,1,.18-.26.61.61,0,0,1,.35-.11Z" transform="translate(-156.81 -113.16)"/><path class="cls-8" d="M173.16,195.21a5.09,5.09,0,0,1,1.5.2,2.92,2.92,0,0,1,1.05.57,2.35,2.35,0,0,1,.62.88,3.1,3.1,0,0,1,.2,1.12,3.06,3.06,0,0,1-.21,1.15,2.37,2.37,0,0,1-.63.9,2.82,2.82,0,0,1-1.05.59,4.76,4.76,0,0,1-1.48.21H172v3.06h-1.61v-8.68Zm0,4.36a2.55,2.55,0,0,0,.77-.11,1.43,1.43,0,0,0,.55-.32,1.22,1.22,0,0,0,.33-.5,2,2,0,0,0,.11-.66,1.73,1.73,0,0,0-.11-.63,1.15,1.15,0,0,0-.33-.48,1.3,1.3,0,0,0-.54-.31,2.59,2.59,0,0,0-.78-.1H172v3.11Z" transform="translate(-156.81 -113.16)"/><path class="cls-8" d="M182.69,202.51a.53.53,0,0,1,.38.13.49.49,0,0,1,.14.36v.89h-6v-.5a.89.89,0,0,1,.06-.31.83.83,0,0,1,.2-.3l2.63-2.64c.22-.22.42-.44.59-.64a3.88,3.88,0,0,0,.44-.61,3,3,0,0,0,.27-.61,2.27,2.27,0,0,0,.09-.65,1.59,1.59,0,0,0-.09-.55,1.07,1.07,0,0,0-.26-.39,1.14,1.14,0,0,0-.39-.25,1.72,1.72,0,0,0-.52-.08,1.53,1.53,0,0,0-.49.08,1.39,1.39,0,0,0-.4.21,1.42,1.42,0,0,0-.29.31,1.32,1.32,0,0,0-.18.4.66.66,0,0,1-.27.36.72.72,0,0,1-.46.05l-.78-.14a3.3,3.3,0,0,1,.34-1.1,2.76,2.76,0,0,1,.65-.78,2.73,2.73,0,0,1,.89-.48,3.69,3.69,0,0,1,1.07-.16,3.21,3.21,0,0,1,1.1.18,2.55,2.55,0,0,1,.85.5,2.43,2.43,0,0,1,.56.78,2.58,2.58,0,0,1,.19,1,2.5,2.5,0,0,1-.14.88,3.13,3.13,0,0,1-.38.78,4.58,4.58,0,0,1-.55.72c-.21.24-.43.47-.67.71l-1.95,2a3.78,3.78,0,0,1,.56-.13,3.23,3.23,0,0,1,.53,0Z" transform="translate(-156.81 -113.16)"/><path class="cls-8" d="M169.27,237.09l-2.69,8.68h-1.46l-1.9-5.93a3.61,3.61,0,0,1-.14-.53c0,.1-.05.2-.07.29s0,.17-.08.24L161,245.77h-1.46l-2.69-8.68h1.35a.63.63,0,0,1,.35.1.47.47,0,0,1,.19.27l1.48,5.19q0,.19.09.42c0,.15.06.3.09.47,0-.17.07-.33.11-.48l.12-.41,1.71-5.19a.56.56,0,0,1,.53-.37h.47a.56.56,0,0,1,.35.11.57.57,0,0,1,.19.26l1.7,5.19a6.59,6.59,0,0,1,.23.86c.05-.32.11-.6.17-.86l1.48-5.19a.42.42,0,0,1,.18-.26.61.61,0,0,1,.35-.11Z" transform="translate(-156.81 -113.16)"/><path class="cls-8" d="M173.16,237.09a4.76,4.76,0,0,1,1.5.21,2.64,2.64,0,0,1,1.05.57,2.24,2.24,0,0,1,.62.87,3.27,3.27,0,0,1,0,2.28,2.37,2.37,0,0,1-.63.9,3,3,0,0,1-1.05.59,4.76,4.76,0,0,1-1.48.21H172v3.05h-1.61v-8.68Zm0,4.37a2.55,2.55,0,0,0,.77-.11,1.56,1.56,0,0,0,.55-.32,1.25,1.25,0,0,0,.33-.51,1.94,1.94,0,0,0,.11-.66,1.81,1.81,0,0,0-.11-.63,1.15,1.15,0,0,0-.33-.48,1.41,1.41,0,0,0-.54-.3,2.57,2.57,0,0,0-.78-.11H172v3.12Z" transform="translate(-156.81 -113.16)"/><path class="cls-8" d="M177.45,239.51a3,3,0,0,1,.35-1.09,2.5,2.5,0,0,1,.64-.79,2.53,2.53,0,0,1,.89-.47,3.4,3.4,0,0,1,1.08-.16,3.31,3.31,0,0,1,1.08.17,2.35,2.35,0,0,1,.82.47,2.13,2.13,0,0,1,.53.71,2.21,2.21,0,0,1,.18.89,2.7,2.7,0,0,1-.09.73,1.52,1.52,0,0,1-.27.54,1.5,1.5,0,0,1-.43.4,2.58,2.58,0,0,1-.58.27,2.18,2.18,0,0,1,1.16.75,2,2,0,0,1,.39,1.27,2.49,2.49,0,0,1-.89,2,2.64,2.64,0,0,1-.95.51,3.52,3.52,0,0,1-1.13.18,3.84,3.84,0,0,1-1.14-.15,2.39,2.39,0,0,1-.85-.45,2.54,2.54,0,0,1-.61-.72,4.67,4.67,0,0,1-.43-1l.65-.27a.82.82,0,0,1,.48-.06.52.52,0,0,1,.33.24,4.49,4.49,0,0,0,.24.42,1.52,1.52,0,0,0,.31.36,1.49,1.49,0,0,0,.42.26,1.44,1.44,0,0,0,.58.1,1.69,1.69,0,0,0,.66-.12,1.47,1.47,0,0,0,.47-.33,1.27,1.27,0,0,0,.28-.44,1.37,1.37,0,0,0,.09-.49,2.47,2.47,0,0,0-.06-.56.9.9,0,0,0-.28-.44,1.52,1.52,0,0,0-.6-.28,4.23,4.23,0,0,0-1.05-.1V240.8a3.73,3.73,0,0,0,.9-.1,1.38,1.38,0,0,0,.57-.27.8.8,0,0,0,.3-.41,1.47,1.47,0,0,0,.09-.53,1.23,1.23,0,0,0-.35-.93,1.27,1.27,0,0,0-.91-.31,1.47,1.47,0,0,0-.48.07,1.27,1.27,0,0,0-.4.21,1.3,1.3,0,0,0-.3.32,1.38,1.38,0,0,0-.18.39.65.65,0,0,1-.27.37.74.74,0,0,1-.46,0Z" transform="translate(-156.81 -113.16)"/><path class="cls-8" d="M169.27,279l-2.69,8.68h-1.46l-1.9-5.93a4,4,0,0,1-.14-.53c0,.1-.05.19-.07.28s0,.17-.08.25L161,287.66h-1.46L156.86,279h1.35a.56.56,0,0,1,.35.1.41.41,0,0,1,.19.27l1.48,5.19c0,.12.06.26.09.41l.09.47c0-.16.07-.32.11-.47s.08-.29.12-.41l1.71-5.19a.56.56,0,0,1,.18-.26.58.58,0,0,1,.35-.11h.47a.56.56,0,0,1,.35.1.66.66,0,0,1,.19.27l1.7,5.19a6.41,6.41,0,0,1,.23.85c.05-.31.11-.6.17-.85l1.48-5.19a.42.42,0,0,1,.18-.26A.61.61,0,0,1,168,279Z" transform="translate(-156.81 -113.16)"/><path class="cls-8" d="M173.16,279a5.09,5.09,0,0,1,1.5.2,2.92,2.92,0,0,1,1.05.57,2.35,2.35,0,0,1,.62.88,3.1,3.1,0,0,1,.2,1.12,3.06,3.06,0,0,1-.21,1.15,2.37,2.37,0,0,1-.63.9,2.82,2.82,0,0,1-1.05.59,4.76,4.76,0,0,1-1.48.21H172v3.06h-1.61V279Zm0,4.36a2.55,2.55,0,0,0,.77-.11,1.43,1.43,0,0,0,.55-.32,1.22,1.22,0,0,0,.33-.5,2,2,0,0,0,.11-.66,1.73,1.73,0,0,0-.11-.63,1.15,1.15,0,0,0-.33-.48,1.3,1.3,0,0,0-.54-.31,2.59,2.59,0,0,0-.78-.1H172v3.11Z" transform="translate(-156.81 -113.16)"/><path class="cls-8" d="M183.45,284.39v.85a.31.31,0,0,1-.07.21.3.3,0,0,1-.23.09h-.79v2.12h-1.29v-2.12h-3.66a.35.35,0,0,1-.26-.1.36.36,0,0,1-.15-.23l-.15-.75L181,279h1.4v5.42Zm-2.38,0v-2.84a7.25,7.25,0,0,1,.06-.89l-2.7,3.73Z" transform="translate(-156.81 -113.16)"/><path class="cls-8" d="M169.27,320.87l-2.69,8.67h-1.46l-1.9-5.93a3.61,3.61,0,0,1-.14-.53c0,.11-.05.2-.07.29s0,.17-.08.24L161,329.54h-1.46l-2.69-8.67h1.35a.63.63,0,0,1,.35.09.47.47,0,0,1,.19.27l1.48,5.19.09.42.09.47c0-.17.07-.33.11-.48l.12-.41,1.71-5.19a.59.59,0,0,1,.18-.25.52.52,0,0,1,.35-.11h.47a.56.56,0,0,1,.35.1.63.63,0,0,1,.19.26l1.7,5.19a7,7,0,0,1,.23.86c.05-.32.11-.6.17-.86l1.48-5.19a.42.42,0,0,1,.18-.26.6.6,0,0,1,.35-.1Z" transform="translate(-156.81 -113.16)"/><path class="cls-8" d="M173.16,320.87a4.78,4.78,0,0,1,1.5.2,2.92,2.92,0,0,1,1.05.57,2.28,2.28,0,0,1,.62.88,3,3,0,0,1,.2,1.11,3.11,3.11,0,0,1-.21,1.16,2.37,2.37,0,0,1-.63.9,3,3,0,0,1-1.05.59,4.76,4.76,0,0,1-1.48.21H172v3.05h-1.61v-8.67Zm0,4.36a2.55,2.55,0,0,0,.77-.11,1.56,1.56,0,0,0,.55-.32,1.25,1.25,0,0,0,.33-.51,1.9,1.9,0,0,0,.11-.66,1.81,1.81,0,0,0-.11-.63,1.15,1.15,0,0,0-.33-.48,1.41,1.41,0,0,0-.54-.3,2.57,2.57,0,0,0-.78-.11H172v3.12Z" transform="translate(-156.81 -113.16)"/><path class="cls-8" d="M179.24,324l.55-.09.51,0a3.39,3.39,0,0,1,1.2.2,2.57,2.57,0,0,1,.88.57,2.31,2.31,0,0,1,.53.84,3,3,0,0,1,.18,1,3.22,3.22,0,0,1-.24,1.26,2.94,2.94,0,0,1-.67,1,3.07,3.07,0,0,1-1,.63,3.78,3.78,0,0,1-1.28.22,3.27,3.27,0,0,1-.78-.09,4,4,0,0,1-.69-.22,3.74,3.74,0,0,1-.59-.33,4.88,4.88,0,0,1-.49-.38l.46-.63a.43.43,0,0,1,.38-.21.51.51,0,0,1,.3.1l.36.21a3,3,0,0,0,.47.21,2.08,2.08,0,0,0,.66.1,1.81,1.81,0,0,0,.72-.14,1.3,1.3,0,0,0,.52-.37,1.45,1.45,0,0,0,.31-.56,2.3,2.3,0,0,0,.11-.71,1.47,1.47,0,0,0-.42-1.11,1.68,1.68,0,0,0-1.21-.4,3.93,3.93,0,0,0-1.27.23l-.92-.26.72-4.21h4.28v.63a.69.69,0,0,1-.19.51,1,1,0,0,1-.68.2h-2.38Z" transform="translate(-156.81 -113.16)"/><path class="cls-8" d="M169.22,362.75l-2.7,8.68h-1.45l-1.9-5.93A4,4,0,0,1,163,365c0,.1-.05.19-.08.28s0,.17-.07.25L161,371.43H159.5l-2.69-8.68h1.35a.56.56,0,0,1,.35.1.44.44,0,0,1,.19.27l1.48,5.19c0,.12.06.26.09.41l.09.47c0-.16.07-.32.11-.47s.08-.29.12-.41l1.7-5.19a.67.67,0,0,1,.19-.26.58.58,0,0,1,.35-.11h.47a.51.51,0,0,1,.34.1.6.6,0,0,1,.2.27l1.7,5.19a8.43,8.43,0,0,1,.23.85c0-.31.11-.6.17-.85l1.48-5.19a.42.42,0,0,1,.18-.26.61.61,0,0,1,.35-.11Z" transform="translate(-156.81 -113.16)"/><path class="cls-8" d="M173.11,362.75a5.09,5.09,0,0,1,1.5.2,2.92,2.92,0,0,1,1,.57,2.35,2.35,0,0,1,.62.88,3.1,3.1,0,0,1,.2,1.12,3.06,3.06,0,0,1-.21,1.15,2.37,2.37,0,0,1-.63.9,2.82,2.82,0,0,1-1,.59,4.76,4.76,0,0,1-1.48.21H171.9v3.06h-1.61v-8.68Zm0,4.36a2.27,2.27,0,0,0,.77-.11,1.43,1.43,0,0,0,.55-.32,1.25,1.25,0,0,0,.33-.5,2,2,0,0,0,.1-.66,1.74,1.74,0,0,0-.1-.63,1.25,1.25,0,0,0-.33-.48,1.3,1.3,0,0,0-.54-.31,2.59,2.59,0,0,0-.78-.1H171.9v3.11Z" transform="translate(-156.81 -113.16)"/><path class="cls-8" d="M179.88,365.9l-.3.37a2.47,2.47,0,0,1,.54-.19,2.59,2.59,0,0,1,.63-.07,2.85,2.85,0,0,1,1,.16,2.36,2.36,0,0,1,.82.49,2.68,2.68,0,0,1,.57.81,3,3,0,0,1-.63,3.2,2.93,2.93,0,0,1-1,.62,3.2,3.2,0,0,1-1.25.23,3.28,3.28,0,0,1-1.25-.22,2.66,2.66,0,0,1-.94-.62,2.79,2.79,0,0,1-.6-1,3.52,3.52,0,0,1-.21-1.25,3.61,3.61,0,0,1,.25-1.25,5.65,5.65,0,0,1,.77-1.34l2.07-2.78a.83.83,0,0,1,.32-.25,1,1,0,0,1,.47-.1h1.32Zm.34,4.41a1.75,1.75,0,0,0,.65-.12,1.39,1.39,0,0,0,.51-.34,1.56,1.56,0,0,0,.33-.5,1.69,1.69,0,0,0,.12-.64,1.94,1.94,0,0,0-.11-.66,1.5,1.5,0,0,0-.33-.51,1.36,1.36,0,0,0-.5-.31,1.71,1.71,0,0,0-.65-.11,1.62,1.62,0,0,0-.64.12,1.41,1.41,0,0,0-.49.33,1.34,1.34,0,0,0-.32.51,1.59,1.59,0,0,0-.12.62,2.28,2.28,0,0,0,.1.66,1.44,1.44,0,0,0,.3.51,1.23,1.23,0,0,0,.48.32A1.71,1.71,0,0,0,180.22,370.31Z" transform="translate(-156.81 -113.16)"/><path class="cls-7" d="M229.1,115.24a.41.41,0,0,1-.16.18.32.32,0,0,1-.2.06.54.54,0,0,1-.27-.09l-.35-.21-.48-.21a2.27,2.27,0,0,0-1.23,0,1.36,1.36,0,0,0-.43.23.94.94,0,0,0-.25.34,1.08,1.08,0,0,0-.08.44.72.72,0,0,0,.17.51,1.24,1.24,0,0,0,.45.35,4.26,4.26,0,0,0,.64.26l.74.24c.25.09.5.19.74.3a2.87,2.87,0,0,1,.64.43,2,2,0,0,1,.45.64,2.16,2.16,0,0,1,.17.92,2.87,2.87,0,0,1-.2,1.1,2.56,2.56,0,0,1-.59.9,2.81,2.81,0,0,1-.94.6,3.61,3.61,0,0,1-1.28.22,3.66,3.66,0,0,1-.81-.09,4.12,4.12,0,0,1-.78-.23,4.52,4.52,0,0,1-.69-.36,3.28,3.28,0,0,1-.57-.46l.47-.78a.56.56,0,0,1,.16-.14.36.36,0,0,1,.2-.06.51.51,0,0,1,.32.13l.42.27a2.92,2.92,0,0,0,.56.27,2.17,2.17,0,0,0,.77.13,1.57,1.57,0,0,0,1.07-.33,1.18,1.18,0,0,0,.38-.94.86.86,0,0,0-.18-.56,1.38,1.38,0,0,0-.45-.36,3.41,3.41,0,0,0-.64-.25l-.73-.22a6.52,6.52,0,0,1-.73-.29,2.4,2.4,0,0,1-.65-.44,2,2,0,0,1-.45-.67,2.68,2.68,0,0,1-.17-1,2.31,2.31,0,0,1,.19-.93,2.26,2.26,0,0,1,.55-.79,2.51,2.51,0,0,1,.89-.56,3.23,3.23,0,0,1,1.21-.21,4,4,0,0,1,1.41.24,3.17,3.17,0,0,1,1.11.67Z" transform="translate(-156.81 -113.16)"/><path class="cls-7" d="M236.15,116.18v8.17h-1.48v-2.79a3,3,0,0,1-.83.63,2.28,2.28,0,0,1-1.07.24,2.05,2.05,0,0,1-.93-.21,2,2,0,0,1-.72-.61,2.94,2.94,0,0,1-.47-1,5,5,0,0,1-.16-1.34,4.28,4.28,0,0,1,.18-1.27,3.31,3.31,0,0,1,.54-1,2.35,2.35,0,0,1,1.92-.92,2.15,2.15,0,0,1,1,.2,2.54,2.54,0,0,1,.7.53l.07-.35a.36.36,0,0,1,.38-.27Zm-1.48,1.58a1.41,1.41,0,0,0-.55-.44,1.69,1.69,0,0,0-.64-.12,1.46,1.46,0,0,0-.6.12,1.32,1.32,0,0,0-.47.38,2.06,2.06,0,0,0-.29.65,3.63,3.63,0,0,0-.1.93,4.66,4.66,0,0,0,.08.91,2.11,2.11,0,0,0,.25.62,1,1,0,0,0,.4.34,1.27,1.27,0,0,0,.52.1,1.52,1.52,0,0,0,.79-.19,2.52,2.52,0,0,0,.61-.54Z" transform="translate(-156.81 -113.16)"/><path class="cls-7" d="M242.92,116.18v6.16H242a.35.35,0,0,1-.37-.27l-.1-.49a3.53,3.53,0,0,1-.83.62,2.32,2.32,0,0,1-1.08.24,2.11,2.11,0,0,1-.89-.18,1.72,1.72,0,0,1-.65-.48,2,2,0,0,1-.4-.74,3.14,3.14,0,0,1-.13-.94v-3.92H239v3.92a1.29,1.29,0,0,0,.26.87,1,1,0,0,0,.78.31,1.59,1.59,0,0,0,.72-.17,2.57,2.57,0,0,0,.64-.47v-4.46Z" transform="translate(-156.81 -113.16)"/><path class="cls-7" d="M244.24,117a3.64,3.64,0,0,1,2.55-1,2.47,2.47,0,0,1,1,.18,2,2,0,0,1,.72.49,2,2,0,0,1,.45.75,2.93,2.93,0,0,1,.15,1v3.89h-.67a.75.75,0,0,1-.33-.06.54.54,0,0,1-.18-.26l-.13-.44c-.15.14-.31.26-.45.37a3.1,3.1,0,0,1-.47.26,2.18,2.18,0,0,1-.51.17,2.77,2.77,0,0,1-.6.06,2.36,2.36,0,0,1-.72-.11,1.57,1.57,0,0,1-.57-.31,1.45,1.45,0,0,1-.37-.53,1.78,1.78,0,0,1-.14-.72,1.55,1.55,0,0,1,.08-.47,1.34,1.34,0,0,1,.26-.44,2,2,0,0,1,.46-.39,2.61,2.61,0,0,1,.69-.33,5.26,5.26,0,0,1,1-.22,8.79,8.79,0,0,1,1.24-.11v-.36a1.3,1.3,0,0,0-.26-.91,1,1,0,0,0-.76-.3,2,2,0,0,0-.6.08,2.76,2.76,0,0,0-.42.19l-.32.19a.63.63,0,0,1-.33.09.39.39,0,0,1-.26-.09.62.62,0,0,1-.18-.18Zm3.39,2.67a9.3,9.3,0,0,0-1.08.11,3.48,3.48,0,0,0-.7.21.87.87,0,0,0-.37.29.72.72,0,0,0,.11.93,1,1,0,0,0,.6.17,1.74,1.74,0,0,0,.79-.17,2.27,2.27,0,0,0,.65-.5Z" transform="translate(-156.81 -113.16)"/><path class="cls-7" d="M255.82,113.42v8.92h-.91a.35.35,0,0,1-.37-.27l-.13-.59a3.14,3.14,0,0,1-.85.69,2.37,2.37,0,0,1-1.12.26,2.05,2.05,0,0,1-.93-.21,2,2,0,0,1-.72-.61,2.94,2.94,0,0,1-.47-1,5,5,0,0,1-.17-1.34,4.28,4.28,0,0,1,.19-1.27,3.09,3.09,0,0,1,.53-1,2.5,2.5,0,0,1,.84-.68,2.42,2.42,0,0,1,1.09-.24,2.1,2.1,0,0,1,.88.16,2.31,2.31,0,0,1,.66.44v-3.25Zm-1.48,4.34a1.49,1.49,0,0,0-.55-.44,1.69,1.69,0,0,0-.64-.12,1.48,1.48,0,0,0-.61.12,1.29,1.29,0,0,0-.46.38,1.69,1.69,0,0,0-.29.65,3.63,3.63,0,0,0-.1.93,4,4,0,0,0,.08.91,1.87,1.87,0,0,0,.25.62,1,1,0,0,0,.4.34,1.24,1.24,0,0,0,.52.1,1.52,1.52,0,0,0,.79-.19,2.52,2.52,0,0,0,.61-.54Z" transform="translate(-156.81 -113.16)"/><path class="cls-7" d="M265.68,121.23v1.11h-4.8v-1.11h1.75v-5.06c0-.2,0-.4,0-.62l-1.25,1a.5.5,0,0,1-.21.1.45.45,0,0,1-.2,0l-.16-.07a.27.27,0,0,1-.11-.1l-.47-.64,2.65-2.25h1.22v7.58Z" transform="translate(-156.81 -113.16)"/><path class="cls-7" d="M321.1,115.24a.41.41,0,0,1-.16.18.32.32,0,0,1-.2.06.54.54,0,0,1-.27-.09l-.35-.21-.48-.21a2.27,2.27,0,0,0-1.23,0,1.36,1.36,0,0,0-.43.23.94.94,0,0,0-.25.34,1.08,1.08,0,0,0-.08.44.72.72,0,0,0,.17.51,1.24,1.24,0,0,0,.45.35,4.26,4.26,0,0,0,.64.26l.74.24c.25.09.5.19.74.3a2.87,2.87,0,0,1,.64.43,2,2,0,0,1,.45.64,2.16,2.16,0,0,1,.17.92,2.87,2.87,0,0,1-.2,1.1,2.56,2.56,0,0,1-.59.9,2.81,2.81,0,0,1-.94.6,3.61,3.61,0,0,1-1.28.22,3.66,3.66,0,0,1-.81-.09,4.12,4.12,0,0,1-.78-.23,4.52,4.52,0,0,1-.69-.36,3.28,3.28,0,0,1-.57-.46l.47-.78a.56.56,0,0,1,.16-.14.36.36,0,0,1,.2-.06.51.51,0,0,1,.32.13l.42.27a2.92,2.92,0,0,0,.56.27,2.17,2.17,0,0,0,.77.13,1.57,1.57,0,0,0,1.07-.33,1.18,1.18,0,0,0,.38-.94.86.86,0,0,0-.18-.56,1.38,1.38,0,0,0-.45-.36,3.41,3.41,0,0,0-.64-.25l-.73-.22a6.52,6.52,0,0,1-.73-.29,2.4,2.4,0,0,1-.65-.44,2,2,0,0,1-.45-.67,2.68,2.68,0,0,1-.17-1,2.31,2.31,0,0,1,.19-.93,2.26,2.26,0,0,1,.55-.79,2.51,2.51,0,0,1,.89-.56,3.23,3.23,0,0,1,1.21-.21,4,4,0,0,1,1.41.24,3.17,3.17,0,0,1,1.11.67Z" transform="translate(-156.81 -113.16)"/><path class="cls-7" d="M328.15,116.18v8.17h-1.48v-2.79a3,3,0,0,1-.83.63,2.28,2.28,0,0,1-1.07.24,2.05,2.05,0,0,1-.93-.21,2,2,0,0,1-.72-.61,2.94,2.94,0,0,1-.47-1,5,5,0,0,1-.16-1.34,4.28,4.28,0,0,1,.18-1.27,3.31,3.31,0,0,1,.54-1,2.35,2.35,0,0,1,1.92-.92,2.15,2.15,0,0,1,1,.2,2.54,2.54,0,0,1,.7.53l.07-.35a.36.36,0,0,1,.38-.27Zm-1.48,1.58a1.41,1.41,0,0,0-.55-.44,1.69,1.69,0,0,0-.64-.12,1.46,1.46,0,0,0-.6.12,1.32,1.32,0,0,0-.47.38,2.06,2.06,0,0,0-.29.65,3.63,3.63,0,0,0-.1.93,4.66,4.66,0,0,0,.08.91,2.11,2.11,0,0,0,.25.62,1,1,0,0,0,.4.34,1.27,1.27,0,0,0,.52.1,1.52,1.52,0,0,0,.79-.19,2.52,2.52,0,0,0,.61-.54Z" transform="translate(-156.81 -113.16)"/><path class="cls-7" d="M334.92,116.18v6.16H334a.35.35,0,0,1-.37-.27l-.1-.49a3.53,3.53,0,0,1-.83.62,2.32,2.32,0,0,1-1.08.24,2.11,2.11,0,0,1-.89-.18,1.72,1.72,0,0,1-.65-.48,2,2,0,0,1-.4-.74,3.14,3.14,0,0,1-.13-.94v-3.92H331v3.92a1.29,1.29,0,0,0,.26.87,1,1,0,0,0,.78.31,1.59,1.59,0,0,0,.72-.17,2.57,2.57,0,0,0,.64-.47v-4.46Z" transform="translate(-156.81 -113.16)"/><path class="cls-7" d="M336.24,117a3.64,3.64,0,0,1,2.55-1,2.43,2.43,0,0,1,1,.18,1.92,1.92,0,0,1,.72.49,2,2,0,0,1,.45.75,2.93,2.93,0,0,1,.15,1v3.89h-.67a.75.75,0,0,1-.33-.06.47.47,0,0,1-.17-.26l-.14-.44c-.15.14-.31.26-.45.37a3.57,3.57,0,0,1-.46.26,2.26,2.26,0,0,1-.52.17,2.77,2.77,0,0,1-.6.06,2.36,2.36,0,0,1-.72-.11,1.57,1.57,0,0,1-.57-.31,1.45,1.45,0,0,1-.37-.53,1.78,1.78,0,0,1-.13-.72,1.29,1.29,0,0,1,.33-.91,2,2,0,0,1,.46-.39,2.61,2.61,0,0,1,.69-.33,5.26,5.26,0,0,1,1-.22,8.79,8.79,0,0,1,1.24-.11v-.36a1.3,1.3,0,0,0-.26-.91,1,1,0,0,0-.76-.3,2,2,0,0,0-.6.08,2.76,2.76,0,0,0-.42.19l-.32.19a.63.63,0,0,1-.33.09.39.39,0,0,1-.26-.09.77.77,0,0,1-.18-.18Zm3.39,2.67a9.3,9.3,0,0,0-1.08.11,3.48,3.48,0,0,0-.7.21.87.87,0,0,0-.37.29.72.72,0,0,0,.11.93,1,1,0,0,0,.61.17,1.73,1.73,0,0,0,.78-.17,2.27,2.27,0,0,0,.65-.5Z" transform="translate(-156.81 -113.16)"/><path class="cls-7" d="M347.82,113.42v8.92h-.91a.35.35,0,0,1-.37-.27l-.12-.59a3.35,3.35,0,0,1-.86.69,2.37,2.37,0,0,1-1.12.26,2.05,2.05,0,0,1-.93-.21,2,2,0,0,1-.72-.61,2.94,2.94,0,0,1-.47-1,5,5,0,0,1-.16-1.34,4.28,4.28,0,0,1,.18-1.27,2.93,2.93,0,0,1,.54-1,2.37,2.37,0,0,1,.83-.68,2.42,2.42,0,0,1,1.09-.24,2.1,2.1,0,0,1,.88.16,2.31,2.31,0,0,1,.66.44v-3.25Zm-1.48,4.34a1.49,1.49,0,0,0-.55-.44,1.69,1.69,0,0,0-.64-.12,1.48,1.48,0,0,0-.61.12,1.29,1.29,0,0,0-.46.38,1.86,1.86,0,0,0-.29.65,3.63,3.63,0,0,0-.1.93,4,4,0,0,0,.08.91,1.87,1.87,0,0,0,.25.62,1,1,0,0,0,.4.34,1.24,1.24,0,0,0,.52.1,1.52,1.52,0,0,0,.79-.19,2.52,2.52,0,0,0,.61-.54Z" transform="translate(-156.81 -113.16)"/><path class="cls-7" d="M357.35,121a.52.52,0,0,1,.38.13.46.46,0,0,1,.15.36v.89h-6v-.49a.77.77,0,0,1,.07-.32.63.63,0,0,1,.2-.29l2.63-2.64c.22-.23.42-.44.59-.65a3.82,3.82,0,0,0,.44-.6,3.19,3.19,0,0,0,.26-.61,2,2,0,0,0,.1-.65,1.55,1.55,0,0,0-.09-.55,1.11,1.11,0,0,0-.26-.4,1,1,0,0,0-.39-.24,1.46,1.46,0,0,0-.52-.08,1.53,1.53,0,0,0-.49.07,1.27,1.27,0,0,0-.4.21,1.3,1.3,0,0,0-.3.32,1.38,1.38,0,0,0-.18.39.6.6,0,0,1-.26.37.76.76,0,0,1-.47,0l-.78-.14a3.25,3.25,0,0,1,.35-1.09,2.53,2.53,0,0,1,.65-.79,2.49,2.49,0,0,1,.88-.47,3.68,3.68,0,0,1,2.18,0,2.41,2.41,0,0,1,.85.51,2.09,2.09,0,0,1,.55.78,2.37,2.37,0,0,1,.2,1,2.81,2.81,0,0,1-.14.89,3.51,3.51,0,0,1-.38.78,5.28,5.28,0,0,1-.55.72l-.67.71-1.95,2a5.07,5.07,0,0,1,.56-.13,3.23,3.23,0,0,1,.53,0Z" transform="translate(-156.81 -113.16)"/><path class="cls-9" d="M410.24,114.45v2.4h3v1.24h-3v2.46h3.86v1.29h-5.48v-8.68h5.48v1.29Z" transform="translate(-156.81 -113.16)"/><path class="cls-9" d="M417.14,114.45V117h3.26v1.29h-3.26v3.54h-1.62v-8.68H421v1.29Z" transform="translate(-156.81 -113.16)"/><path class="cls-9" d="M425.14,113.16a4.76,4.76,0,0,1,1.5.21,2.64,2.64,0,0,1,1.05.57,2.24,2.24,0,0,1,.62.87,3.14,3.14,0,0,1,.2,1.12,3.06,3.06,0,0,1-.21,1.15,2.41,2.41,0,0,1-.63.91,3,3,0,0,1-1.05.59,5.08,5.08,0,0,1-1.48.21h-1.21v3h-1.61v-8.68Zm0,4.37a2.26,2.26,0,0,0,.77-.12,1.55,1.55,0,0,0,.55-.31,1.5,1.5,0,0,0,.33-.51,2,2,0,0,0,.1-.66,1.81,1.81,0,0,0-.1-.63,1.25,1.25,0,0,0-.33-.48,1.41,1.41,0,0,0-.54-.3,2.57,2.57,0,0,0-.78-.11h-1.21v3.12Z" transform="translate(-156.81 -113.16)"/><path class="cls-9" d="M431.36,121.84h-1.62v-8.68h1.62Z" transform="translate(-156.81 -113.16)"/><path class="cls-9" d="M440.74,121.84h-1.25a.51.51,0,0,1-.34-.11.57.57,0,0,1-.2-.26l-.65-1.77h-3.59l-.65,1.77a.58.58,0,0,1-.19.26.53.53,0,0,1-.34.11h-1.26l3.41-8.68h1.65Zm-2.85-3.28-1.06-2.88a4.79,4.79,0,0,1-.16-.46c-.06-.18-.11-.36-.17-.57-.05.21-.11.4-.16.57s-.11.34-.16.47l-1.05,2.87Z" transform="translate(-156.81 -113.16)"/><path class="cls-9" d="M414.69,127.75a2.56,2.56,0,0,1,.69-.87,1.43,1.43,0,0,1,.93-.31,1.18,1.18,0,0,1,.69.18l-.1,1.12a.27.27,0,0,1-.09.15.22.22,0,0,1-.15,0l-.27,0a2,2,0,0,0-.34,0,1.19,1.19,0,0,0-.44.08.9.9,0,0,0-.34.2,1.09,1.09,0,0,0-.27.33,2.26,2.26,0,0,0-.22.44v3.79h-1.49v-6.16h.88a.48.48,0,0,1,.31.08.52.52,0,0,1,.12.29Z" transform="translate(-156.81 -113.16)"/><path class="cls-9" d="M418.74,130a3.14,3.14,0,0,0,.16.82,1.78,1.78,0,0,0,.35.57,1.36,1.36,0,0,0,.52.33,1.67,1.67,0,0,0,.65.11,2.22,2.22,0,0,0,.62-.08,2.91,2.91,0,0,0,.46-.19l.34-.18a.55.55,0,0,1,.29-.09.31.31,0,0,1,.27.14l.43.54a2.75,2.75,0,0,1-.55.48,3.48,3.48,0,0,1-.64.32,4,4,0,0,1-.68.16,5.16,5.16,0,0,1-.67.05,3.27,3.27,0,0,1-1.19-.21,2.86,2.86,0,0,1-1-.63,3,3,0,0,1-.65-1,4.1,4.1,0,0,1-.23-1.42,3.58,3.58,0,0,1,.2-1.19,2.92,2.92,0,0,1,.59-1,2.6,2.6,0,0,1,.93-.65,3.3,3.3,0,0,1,2.31-.06,2.45,2.45,0,0,1,.85.55,2.49,2.49,0,0,1,.55.87,3.16,3.16,0,0,1,.2,1.19.94.94,0,0,1-.07.45.29.29,0,0,1-.27.12Zm2.82-.9a1.61,1.61,0,0,0-.08-.54,1.22,1.22,0,0,0-.24-.45,1.24,1.24,0,0,0-.41-.3,1.5,1.5,0,0,0-.58-.11,1.37,1.37,0,0,0-1,.36,1.77,1.77,0,0,0-.47,1Z" transform="translate(-156.81 -113.16)"/><path class="cls-9" d="M425.41,127.52a3.35,3.35,0,0,1,.86-.69,2.34,2.34,0,0,1,1.12-.26,2.05,2.05,0,0,1,.93.21,2.18,2.18,0,0,1,.72.61,2.87,2.87,0,0,1,.46,1,5,5,0,0,1,.17,1.34,4,4,0,0,1-.19,1.28,3.09,3.09,0,0,1-.53,1,2.59,2.59,0,0,1-.83.68,2.47,2.47,0,0,1-1.1.24,2.13,2.13,0,0,1-.88-.16,2.2,2.2,0,0,1-.65-.44v2.52H424v-8.17h.91a.37.37,0,0,1,.38.27Zm.08,3.72a1.3,1.3,0,0,0,.55.43,1.5,1.5,0,0,0,.64.13,1.36,1.36,0,0,0,.61-.13,1.19,1.19,0,0,0,.46-.38,2.06,2.06,0,0,0,.29-.65,4.14,4.14,0,0,0,.1-.93,3.94,3.94,0,0,0-.09-.91,1.72,1.72,0,0,0-.25-.61,1,1,0,0,0-.39-.34,1.25,1.25,0,0,0-.53-.11,1.48,1.48,0,0,0-.78.19,2.4,2.4,0,0,0-.61.55Z" transform="translate(-156.81 -113.16)"/><path class="cls-9" d="M434.58,127.88a.45.45,0,0,1-.13.14.39.39,0,0,1-.17,0,.53.53,0,0,1-.23-.06l-.28-.14a2.64,2.64,0,0,0-.37-.13,1.77,1.77,0,0,0-.49-.06,1.18,1.18,0,0,0-.69.18.61.61,0,0,0-.25.49.49.49,0,0,0,.13.33,1.28,1.28,0,0,0,.34.24,3.12,3.12,0,0,0,.49.18l.55.18c.18.06.36.14.54.22a1.64,1.64,0,0,1,.49.31,1.67,1.67,0,0,1,.34.45,1.41,1.41,0,0,1,.13.64,2,2,0,0,1-.16.82,1.87,1.87,0,0,1-.47.65,2.28,2.28,0,0,1-.77.42,3.42,3.42,0,0,1-1.06.16,3.18,3.18,0,0,1-.62-.06,3.6,3.6,0,0,1-1.1-.4,2.25,2.25,0,0,1-.42-.3l.34-.56a.61.61,0,0,1,.16-.16.41.41,0,0,1,.23-.05.48.48,0,0,1,.26.07c.08.06.18.11.28.17a2.4,2.4,0,0,0,.39.17,1.68,1.68,0,0,0,.55.08,1.18,1.18,0,0,0,.45-.07,1,1,0,0,0,.32-.16.69.69,0,0,0,.18-.24.87.87,0,0,0,0-.28.48.48,0,0,0-.13-.35,1.14,1.14,0,0,0-.34-.24,2.67,2.67,0,0,0-.48-.18l-.56-.18a5.48,5.48,0,0,1-.56-.23,2,2,0,0,1-.49-.32,1.72,1.72,0,0,1-.34-.49,1.78,1.78,0,0,1-.13-.7,1.71,1.71,0,0,1,.15-.71,1.73,1.73,0,0,1,.44-.6,2.24,2.24,0,0,1,.73-.41,3.35,3.35,0,0,1,2.16.06,2.54,2.54,0,0,1,.87.55Z" transform="translate(-156.81 -113.16)"/><path class="cls-10" d="M349.68,434v2.41h3v1.24h-3v2.46h3.85v1.29h-5.47V432.7h5.47V434Z" transform="translate(-156.81 -113.16)"/><path class="cls-10" d="M356.58,434v2.57h3.25v1.29h-3.25v3.54H355V432.7h5.47V434Z" transform="translate(-156.81 -113.16)"/><path class="cls-10" d="M364.57,432.7a5.16,5.16,0,0,1,1.51.2,3.1,3.1,0,0,1,1.05.57,2.35,2.35,0,0,1,.62.88,3.1,3.1,0,0,1,.2,1.12,3.06,3.06,0,0,1-.21,1.15,2.37,2.37,0,0,1-.63.9,2.86,2.86,0,0,1-1.06.59,4.68,4.68,0,0,1-1.48.21h-1.2v3.06h-1.62V432.7Zm0,4.36a2.3,2.3,0,0,0,.78-.11,1.43,1.43,0,0,0,.55-.32,1.23,1.23,0,0,0,.32-.5,1.76,1.76,0,0,0,.11-.66,1.54,1.54,0,0,0-.11-.63,1.23,1.23,0,0,0-.32-.48,1.34,1.34,0,0,0-.55-.31,2.59,2.59,0,0,0-.78-.1h-1.2v3.11Z" transform="translate(-156.81 -113.16)"/><path class="cls-10" d="M370.8,441.38h-1.62V432.7h1.62Z" transform="translate(-156.81 -113.16)"/><path class="cls-10" d="M380.17,441.38h-1.24a.56.56,0,0,1-.35-.11.63.63,0,0,1-.19-.26l-.65-1.77h-3.6L373.5,441a.64.64,0,0,1-.19.25.5.5,0,0,1-.34.12h-1.26l3.41-8.68h1.65Zm-2.85-3.28-1.05-2.89a4.52,4.52,0,0,1-.16-.45c-.06-.18-.12-.37-.17-.57-.05.2-.11.39-.16.57s-.11.33-.17.47l-1.05,2.87Z" transform="translate(-156.81 -113.16)"/><path class="cls-10" d="M386.58,432.7a5.58,5.58,0,0,1,1.45.16,2.66,2.66,0,0,1,1,.47,1.79,1.79,0,0,1,.56.72,2.42,2.42,0,0,1,.18,1,2,2,0,0,1-.09.59,1.65,1.65,0,0,1-.28.52,1.87,1.87,0,0,1-.48.44,2.77,2.77,0,0,1-.69.33c1.19.27,1.79.92,1.79,1.94a2.48,2.48,0,0,1-.21,1,2.28,2.28,0,0,1-.61.8,2.76,2.76,0,0,1-1,.53,4.26,4.26,0,0,1-1.35.2h-3.27V432.7ZM385.2,434v2.51h1.29a2.18,2.18,0,0,0,1.25-.3,1.1,1.1,0,0,0,.42-1,1.13,1.13,0,0,0-.38-1,2,2,0,0,0-1.2-.29Zm1.63,6.17a2.35,2.35,0,0,0,.76-.11,1.3,1.3,0,0,0,.49-.29,1,1,0,0,0,.26-.42,1.44,1.44,0,0,0,.08-.51,1.36,1.36,0,0,0-.09-.51.94.94,0,0,0-.28-.38,1.18,1.18,0,0,0-.49-.24,2.65,2.65,0,0,0-.73-.09H385.2v2.55Z" transform="translate(-156.81 -113.16)"/><path class="cls-10" d="M394.92,438v3.36h-1.61V438l-3.16-5.32h1.42a.48.48,0,0,1,.33.1,1.09,1.09,0,0,1,.21.26l1.58,2.9.24.48c.07.16.14.31.19.46l.18-.46q.1-.22.24-.48l1.58-2.9a.87.87,0,0,1,.19-.25.53.53,0,0,1,.34-.11h1.43Z" transform="translate(-156.81 -113.16)"/><path class="cls-10" d="M406.74,437a4.92,4.92,0,0,1-.32,1.77,4.14,4.14,0,0,1-.89,1.4,4,4,0,0,1-1.39.93,5,5,0,0,1-3.59,0,4,4,0,0,1-1.39-.93,4.16,4.16,0,0,1-.9-1.4A4.92,4.92,0,0,1,398,437a4.84,4.84,0,0,1,.31-1.77,4.31,4.31,0,0,1,.9-1.41,4.17,4.17,0,0,1,1.39-.92,4.72,4.72,0,0,1,1.79-.34,4.89,4.89,0,0,1,1.24.16,4.06,4.06,0,0,1,1.07.43,3.91,3.91,0,0,1,.88.68,4.26,4.26,0,0,1,1.06,2A4.78,4.78,0,0,1,406.74,437Zm-1.66,0a3.91,3.91,0,0,0-.19-1.28,2.77,2.77,0,0,0-.54-1,2.47,2.47,0,0,0-.86-.6,3.23,3.23,0,0,0-2.29,0,2.3,2.3,0,0,0-.86.6,2.79,2.79,0,0,0-.55,1,3.91,3.91,0,0,0-.19,1.28,4,4,0,0,0,.19,1.28,2.66,2.66,0,0,0,.55,1,2.3,2.3,0,0,0,.86.6,3.23,3.23,0,0,0,2.29,0,2.47,2.47,0,0,0,.86-.6,2.64,2.64,0,0,0,.54-1A4,4,0,0,0,405.08,437Z" transform="translate(-156.81 -113.16)"/><path class="cls-10" d="M415.86,437a4.54,4.54,0,0,1-.32,1.75,4.15,4.15,0,0,1-.89,1.38,4,4,0,0,1-1.39.89,4.93,4.93,0,0,1-1.8.32h-3.3V432.7h3.3a4.93,4.93,0,0,1,1.8.32,4,4,0,0,1,1.39.9,3.91,3.91,0,0,1,.89,1.37A4.51,4.51,0,0,1,415.86,437Zm-1.65,0a4.2,4.2,0,0,0-.19-1.28,2.66,2.66,0,0,0-.55-1,2.5,2.5,0,0,0-.86-.61,3,3,0,0,0-1.15-.21h-1.68v6.11h1.68a3,3,0,0,0,1.15-.21,2.47,2.47,0,0,0,.86-.6,2.66,2.66,0,0,0,.55-1A4.25,4.25,0,0,0,414.21,437Z" transform="translate(-156.81 -113.16)"/></g><g id="Layer_5" data-name="Layer 5"><line class="cls-3" x1="88.26" y1="281.31" x2="88.26" y2="289.81"/><line class="cls-3" x1="180.46" y1="281.31" x2="180.46" y2="289.81"/><line class="cls-11" x1="267.78" y1="272.28" x2="267.78" y2="300.47"/><path class="cls-9" d="M424.59,419.66a29.91,29.91,0,0,0-4.76-8.54l4.76,1.72,4.76-1.72A29.91,29.91,0,0,0,424.59,419.66Z" transform="translate(-156.81 -113.16)"/><path class="cls-10" d="M178.24,434.15a.71.71,0,0,1-.15.18.34.34,0,0,1-.2.06.54.54,0,0,1-.28-.09,3.22,3.22,0,0,0-.35-.21,3,3,0,0,0-.47-.21,2.13,2.13,0,0,0-.65-.09,2.1,2.1,0,0,0-.59.08,1.14,1.14,0,0,0-.42.23.84.84,0,0,0-.25.34,1.08,1.08,0,0,0-.09.44.77.77,0,0,0,.17.51,1.51,1.51,0,0,0,.46.35,3.87,3.87,0,0,0,.64.26l.74.24c.25.09.49.19.73.3a2.93,2.93,0,0,1,.65.43,2,2,0,0,1,.62,1.56,3.07,3.07,0,0,1-.2,1.1,2.57,2.57,0,0,1-.59.89,2.61,2.61,0,0,1-.94.6,3.44,3.44,0,0,1-1.28.22,3.74,3.74,0,0,1-.82-.08,4,4,0,0,1-.77-.23,3.75,3.75,0,0,1-.69-.36,3,3,0,0,1-.58-.47l.48-.77a.5.5,0,0,1,.15-.14.37.37,0,0,1,.21-.06.58.58,0,0,1,.32.12l.41.28a3.24,3.24,0,0,0,.56.27,2.28,2.28,0,0,0,.78.12,1.54,1.54,0,0,0,1.06-.32,1.15,1.15,0,0,0,.38-.94.89.89,0,0,0-.17-.56,1.26,1.26,0,0,0-.45-.36,3.41,3.41,0,0,0-.64-.25l-.74-.22a7.38,7.38,0,0,1-.73-.29,2.35,2.35,0,0,1-.64-.44,1.92,1.92,0,0,1-.45-.68,2.44,2.44,0,0,1-.17-1,2.48,2.48,0,0,1,.18-.93,2.54,2.54,0,0,1,.55-.8,2.74,2.74,0,0,1,.89-.55,3.27,3.27,0,0,1,1.21-.21,4,4,0,0,1,1.42.24,3.13,3.13,0,0,1,1.1.67Z" transform="translate(-156.81 -113.16)"/><path class="cls-10" d="M185.3,435.09v8.17h-1.48v-2.79a3.14,3.14,0,0,1-.83.63,2.32,2.32,0,0,1-1.08.24,2,2,0,0,1-.92-.21,2,2,0,0,1-.72-.61,2.84,2.84,0,0,1-.47-1,5,5,0,0,1-.17-1.34,4.28,4.28,0,0,1,.19-1.27,2.9,2.9,0,0,1,.53-1,2.39,2.39,0,0,1,1.93-.92,2,2,0,0,1,1,.2,2.36,2.36,0,0,1,.69.53l.08-.35a.35.35,0,0,1,.37-.27Zm-1.48,1.57a1.56,1.56,0,0,0-.55-.43,1.69,1.69,0,0,0-.64-.12,1.48,1.48,0,0,0-.61.12,1.29,1.29,0,0,0-.46.38,1.69,1.69,0,0,0-.29.65,3.59,3.59,0,0,0-.11.93,3.94,3.94,0,0,0,.09.91,1.72,1.72,0,0,0,.25.61,1,1,0,0,0,.4.35,1.24,1.24,0,0,0,.52.1,1.46,1.46,0,0,0,.78-.19,2.41,2.41,0,0,0,.62-.55Z" transform="translate(-156.81 -113.16)"/><path class="cls-10" d="M192.07,435.09v6.16h-.91a.34.34,0,0,1-.37-.27l-.1-.49a3.58,3.58,0,0,1-.84.62,2.38,2.38,0,0,1-1.07.23,2.05,2.05,0,0,1-.89-.17,1.65,1.65,0,0,1-.65-.48,2.12,2.12,0,0,1-.4-.74,3.16,3.16,0,0,1-.14-.95v-3.91h1.48V439a1.36,1.36,0,0,0,.26.88,1,1,0,0,0,.79.31A1.54,1.54,0,0,0,190,440a2.46,2.46,0,0,0,.63-.47v-4.45Z" transform="translate(-156.81 -113.16)"/><path class="cls-10" d="M193.38,436a3.65,3.65,0,0,1,2.56-1,2.5,2.5,0,0,1,1,.18,2,2,0,0,1,.72.49,2.16,2.16,0,0,1,.44.75,2.69,2.69,0,0,1,.16,1v3.89h-.68a.61.61,0,0,1-.32-.07.38.38,0,0,1-.18-.25l-.13-.44a4.49,4.49,0,0,1-.46.36,2.4,2.4,0,0,1-.46.27,2.78,2.78,0,0,1-.51.17,2.9,2.9,0,0,1-.61,0,2.26,2.26,0,0,1-.71-.1,1.55,1.55,0,0,1-.58-.32,1.53,1.53,0,0,1-.37-.52,1.81,1.81,0,0,1-.13-.72,1.55,1.55,0,0,1,.08-.47,1.5,1.5,0,0,1,.25-.44,2.32,2.32,0,0,1,.46-.4,3.05,3.05,0,0,1,.7-.32,5.34,5.34,0,0,1,.95-.22,8.94,8.94,0,0,1,1.25-.11v-.36a1.4,1.4,0,0,0-.26-.92,1,1,0,0,0-.77-.29,2,2,0,0,0-.59.08,2.76,2.76,0,0,0-.42.19l-.33.19a.57.57,0,0,1-.32.08.41.41,0,0,1-.27-.08.52.52,0,0,1-.17-.19Zm3.4,2.67a8.85,8.85,0,0,0-1.08.11,2.79,2.79,0,0,0-.7.21.91.91,0,0,0-.38.29.62.62,0,0,0-.11.37.64.64,0,0,0,.23.56,1,1,0,0,0,.6.16,1.74,1.74,0,0,0,.79-.16,2.41,2.41,0,0,0,.65-.5Z" transform="translate(-156.81 -113.16)"/><path class="cls-10" d="M205,432.33v8.92h-.9a.34.34,0,0,1-.37-.27l-.13-.6a2.94,2.94,0,0,1-.85.69,2.3,2.3,0,0,1-1.13.27,2,2,0,0,1-.92-.21,2.11,2.11,0,0,1-.73-.61,3,3,0,0,1-.46-1,5,5,0,0,1-.17-1.34,4,4,0,0,1,.19-1.27,2.9,2.9,0,0,1,.53-1A2.35,2.35,0,0,1,202,435a2.16,2.16,0,0,1,.88.16,2.2,2.2,0,0,1,.65.44v-3.25Zm-1.48,4.33a1.56,1.56,0,0,0-.55-.43,1.66,1.66,0,0,0-.64-.12,1.46,1.46,0,0,0-.6.12,1.21,1.21,0,0,0-.46.38,1.86,1.86,0,0,0-.3.65,3.63,3.63,0,0,0-.1.93,3.94,3.94,0,0,0,.09.91,1.72,1.72,0,0,0,.25.61.93.93,0,0,0,.39.35,1.27,1.27,0,0,0,.52.1,1.52,1.52,0,0,0,.79-.19,2.22,2.22,0,0,0,.61-.55Z" transform="translate(-156.81 -113.16)"/><path class="cls-10" d="M211.2,433.86v2.56h3.25v1.29H211.2v3.54h-1.62v-8.68h5.47v1.29Z" transform="translate(-156.81 -113.16)"/><path class="cls-10" d="M215.18,436a3.65,3.65,0,0,1,2.56-1,2.5,2.5,0,0,1,1,.18,1.88,1.88,0,0,1,.71.49,2,2,0,0,1,.45.75,2.93,2.93,0,0,1,.15,1v3.89h-.67a.56.56,0,0,1-.32-.07.38.38,0,0,1-.18-.25l-.13-.44a4.49,4.49,0,0,1-.46.36,2.4,2.4,0,0,1-.46.27,2.78,2.78,0,0,1-.51.17,3,3,0,0,1-.61,0,2.37,2.37,0,0,1-.72-.1,1.59,1.59,0,0,1-.57-.32,1.41,1.41,0,0,1-.37-.52,1.81,1.81,0,0,1-.13-.72,1.55,1.55,0,0,1,.08-.47,1.31,1.31,0,0,1,.25-.44,2.32,2.32,0,0,1,.46-.4,3.17,3.17,0,0,1,.69-.32,5.68,5.68,0,0,1,1-.22,8.81,8.81,0,0,1,1.25-.11v-.36a1.35,1.35,0,0,0-.27-.92,1,1,0,0,0-.76-.29,1.91,1.91,0,0,0-.59.08,2.76,2.76,0,0,0-.42.19l-.33.19a.62.62,0,0,1-.33.08.38.38,0,0,1-.26-.08.52.52,0,0,1-.17-.19Zm3.4,2.67a8.85,8.85,0,0,0-1.08.11,2.79,2.79,0,0,0-.7.21.91.91,0,0,0-.38.29.63.63,0,0,0-.12.37.65.65,0,0,0,.24.56,1,1,0,0,0,.6.16,1.77,1.77,0,0,0,.79-.16,2.41,2.41,0,0,0,.65-.5Z" transform="translate(-156.81 -113.16)"/><path class="cls-10" d="M225.83,436.39l-.13.14a.34.34,0,0,1-.19,0,.38.38,0,0,1-.22-.07l-.26-.15a1.92,1.92,0,0,0-.35-.16,1.85,1.85,0,0,0-.51-.07,1.63,1.63,0,0,0-.69.14,1.3,1.3,0,0,0-.49.41,1.79,1.79,0,0,0-.29.64,3.6,3.6,0,0,0-.1.85,3.23,3.23,0,0,0,.11.87,2,2,0,0,0,.3.65,1.43,1.43,0,0,0,.48.4,1.47,1.47,0,0,0,.64.13,1.51,1.51,0,0,0,.57-.09,1.81,1.81,0,0,0,.37-.19l.26-.19a.4.4,0,0,1,.25-.09.31.31,0,0,1,.27.14l.43.54a3,3,0,0,1-.54.48,2.57,2.57,0,0,1-.59.31,2.88,2.88,0,0,1-.64.17,4.87,4.87,0,0,1-.65,0,2.64,2.64,0,0,1-1.08-.22,2.44,2.44,0,0,1-.88-.62,2.82,2.82,0,0,1-.59-1,3.73,3.73,0,0,1-.22-1.34,4,4,0,0,1,.19-1.26,2.81,2.81,0,0,1,.57-1,2.75,2.75,0,0,1,.94-.66,3.21,3.21,0,0,1,1.28-.24,3,3,0,0,1,1.21.22,3.1,3.1,0,0,1,.94.63Z" transform="translate(-156.81 -113.16)"/><path class="cls-10" d="M228.23,438.36a3,3,0,0,0,.17.81,1.66,1.66,0,0,0,.35.58,1.36,1.36,0,0,0,.51.33,1.76,1.76,0,0,0,.66.11,2.22,2.22,0,0,0,.62-.08,3.36,3.36,0,0,0,.46-.19l.34-.18a.54.54,0,0,1,.28-.09.31.31,0,0,1,.28.14l.42.54a2.29,2.29,0,0,1-.55.48,2.53,2.53,0,0,1-.64.31,3.14,3.14,0,0,1-.67.17,5.29,5.29,0,0,1-.67,0,3.16,3.16,0,0,1-1.2-.22,2.69,2.69,0,0,1-1-.62,3.1,3.1,0,0,1-.64-1,3.88,3.88,0,0,1-.23-1.42,3.34,3.34,0,0,1,.2-1.19,2.9,2.9,0,0,1,.58-1,2.73,2.73,0,0,1,.94-.65,3,3,0,0,1,1.23-.24,3.14,3.14,0,0,1,1.08.18,2.38,2.38,0,0,1,1.4,1.42,3.37,3.37,0,0,1,.2,1.19.94.94,0,0,1-.07.45.3.3,0,0,1-.28.12Zm2.83-.9a1.91,1.91,0,0,0-.08-.54,1.41,1.41,0,0,0-.25-.45,1,1,0,0,0-.41-.3,1.31,1.31,0,0,0-.58-.11,1.4,1.4,0,0,0-1,.36,1.86,1.86,0,0,0-.47,1Z" transform="translate(-156.81 -113.16)"/><path class="cls-10" d="M238.47,441.34a1.6,1.6,0,0,1-1.23-.45,1.73,1.73,0,0,1-.43-1.25V436.2h-.63a.28.28,0,0,1-.21-.08.32.32,0,0,1-.08-.23v-.59l1-.16.31-1.68a.4.4,0,0,1,.11-.19.38.38,0,0,1,.22-.06h.77v1.94h1.64v1.05h-1.64v3.34a.69.69,0,0,0,.14.45.47.47,0,0,0,.39.16.75.75,0,0,0,.23,0l.16-.07.12-.07a.23.23,0,0,1,.11,0,.2.2,0,0,1,.11,0,.3.3,0,0,1,.09.1l.44.72a2.31,2.31,0,0,1-.74.41A2.82,2.82,0,0,1,238.47,441.34Z" transform="translate(-156.81 -113.16)"/><path class="cls-10" d="M243.56,435a3.3,3.3,0,0,1,1.24.22,2.67,2.67,0,0,1,1,.63,2.78,2.78,0,0,1,.62,1,3.93,3.93,0,0,1,.21,1.32,3.89,3.89,0,0,1-.21,1.32,2.91,2.91,0,0,1-.62,1,2.57,2.57,0,0,1-1,.64,3.51,3.51,0,0,1-1.24.22,3.62,3.62,0,0,1-1.26-.22,2.74,2.74,0,0,1-1-.64,2.91,2.91,0,0,1-.62-1,3.88,3.88,0,0,1-.22-1.32,3.93,3.93,0,0,1,.22-1.32,2.78,2.78,0,0,1,.62-1,2.86,2.86,0,0,1,1-.63A3.4,3.4,0,0,1,243.56,435Zm0,5.2a1.27,1.27,0,0,0,1.13-.52,2.55,2.55,0,0,0,.37-1.51,2.61,2.61,0,0,0-.37-1.52,1.27,1.27,0,0,0-1.13-.52,1.31,1.31,0,0,0-1.16.53,3.27,3.27,0,0,0,0,3A1.35,1.35,0,0,0,243.56,440.2Z" transform="translate(-156.81 -113.16)"/><path class="cls-10" d="M252.5,433.86v2.56h3.25v1.29H252.5v3.54h-1.62v-8.68h5.47v1.29Z" transform="translate(-156.81 -113.16)"/><path class="cls-10" d="M256.48,436a3.65,3.65,0,0,1,2.56-1,2.42,2.42,0,0,1,1,.18,1.84,1.84,0,0,1,.72.49,2,2,0,0,1,.45.75,2.93,2.93,0,0,1,.15,1v3.89h-.67a.56.56,0,0,1-.32-.07.38.38,0,0,1-.18-.25l-.14-.44a3.55,3.55,0,0,1-.45.36,2.4,2.4,0,0,1-.46.27,2.64,2.64,0,0,1-.52.17,2.8,2.8,0,0,1-.6,0,2.37,2.37,0,0,1-.72-.1,1.59,1.59,0,0,1-.57-.32,1.41,1.41,0,0,1-.37-.52,1.81,1.81,0,0,1-.13-.72,1.29,1.29,0,0,1,.33-.91,2.32,2.32,0,0,1,.46-.4,3.17,3.17,0,0,1,.69-.32,5.46,5.46,0,0,1,1-.22,8.81,8.81,0,0,1,1.25-.11v-.36a1.35,1.35,0,0,0-.27-.92,1,1,0,0,0-.76-.29,2,2,0,0,0-.6.08,3.14,3.14,0,0,0-.41.19l-.33.19a.62.62,0,0,1-.33.08.38.38,0,0,1-.26-.08.66.66,0,0,1-.18-.19Zm3.4,2.67a8.85,8.85,0,0,0-1.08.11,2.89,2.89,0,0,0-.71.21.87.87,0,0,0-.37.29.63.63,0,0,0-.12.37.67.67,0,0,0,.23.56,1,1,0,0,0,.61.16,1.8,1.8,0,0,0,.79-.16,2.58,2.58,0,0,0,.65-.5Z" transform="translate(-156.81 -113.16)"/><path class="cls-10" d="M267.12,436.39a.87.87,0,0,1-.12.14.36.36,0,0,1-.19,0,.38.38,0,0,1-.22-.07l-.26-.15a2.29,2.29,0,0,0-.35-.16,1.87,1.87,0,0,0-.52-.07,1.59,1.59,0,0,0-.68.14,1.3,1.3,0,0,0-.49.41,1.79,1.79,0,0,0-.29.64,3.15,3.15,0,0,0-.1.85,3.23,3.23,0,0,0,.11.87,2,2,0,0,0,.3.65,1.43,1.43,0,0,0,.48.4,1.47,1.47,0,0,0,.64.13,1.55,1.55,0,0,0,.57-.09,1.81,1.81,0,0,0,.37-.19l.26-.19a.38.38,0,0,1,.25-.09.31.31,0,0,1,.27.14l.42.54a2.65,2.65,0,0,1-.53.48,2.44,2.44,0,0,1-.6.31,2.66,2.66,0,0,1-.63.17,4.87,4.87,0,0,1-.65,0,2.64,2.64,0,0,1-1.08-.22,2.44,2.44,0,0,1-.88-.62,3,3,0,0,1-.6-1,4.13,4.13,0,0,1,0-2.6,2.81,2.81,0,0,1,.57-1,2.66,2.66,0,0,1,.94-.66,3.21,3.21,0,0,1,1.28-.24,3,3,0,0,1,1.21.22,2.94,2.94,0,0,1,.93.63Z" transform="translate(-156.81 -113.16)"/><path class="cls-10" d="M269.53,438.36a2.63,2.63,0,0,0,.17.81,1.66,1.66,0,0,0,.35.58,1.36,1.36,0,0,0,.51.33,1.76,1.76,0,0,0,.66.11,2.28,2.28,0,0,0,.62-.08,3.21,3.21,0,0,0,.45-.19l.34-.18a.57.57,0,0,1,.29-.09.32.32,0,0,1,.28.14l.42.54a2.5,2.5,0,0,1-.55.48,2.7,2.7,0,0,1-.64.31,3.22,3.22,0,0,1-.68.17,5.16,5.16,0,0,1-.67,0,3.15,3.15,0,0,1-1.19-.22,2.69,2.69,0,0,1-1-.62,3,3,0,0,1-.64-1,3.88,3.88,0,0,1-.24-1.42,3.35,3.35,0,0,1,.21-1.19,2.74,2.74,0,0,1,.58-1,2.79,2.79,0,0,1,.93-.65A3.08,3.08,0,0,1,271,435a3.14,3.14,0,0,1,1.08.18,2.53,2.53,0,0,1,.84.54,2.55,2.55,0,0,1,.56.88,3.37,3.37,0,0,1,.2,1.19,1.09,1.09,0,0,1-.07.45.3.3,0,0,1-.28.12Zm2.83-.9a1.91,1.91,0,0,0-.08-.54,1.41,1.41,0,0,0-.25-.45,1,1,0,0,0-.41-.3,1.31,1.31,0,0,0-.58-.11,1.39,1.39,0,0,0-1,.36,1.86,1.86,0,0,0-.47,1Z" transform="translate(-156.81 -113.16)"/><path class="cls-3" d="M416,221.12" transform="translate(-156.81 -113.16)"/><line class="cls-3" x1="49.69" y1="289.84" x2="212.69" y2="289.84"/><line class="cls-3" x1="50.69" y1="289.84" x2="50.69" y2="300.3"/><path class="cls-7" d="M207.5,419.5a30.1,30.1,0,0,0-4.76-8.55l4.76,1.72,4.75-1.72A30.31,30.31,0,0,0,207.5,419.5Z" transform="translate(-156.81 -113.16)"/><line class="cls-3" x1="211.69" y1="289.84" x2="211.69" y2="300.3"/><path class="cls-7" d="M368.5,419.5a30.1,30.1,0,0,0-4.76-8.55l4.76,1.72,4.75-1.72A30.31,30.31,0,0,0,368.5,419.5Z" transform="translate(-156.81 -113.16)"/></g></svg>